<svg width="144" height="40" viewBox="0 0 144 40" fill="none" xmlns="http://www.w3.org/2000/svg">
<path d="M144 35.9904C144 38.2056 142.146 40 139.853 40H4.15208C1.86027 40 0 38.2056 0 35.9904V4.01487C0 1.80067 1.86027 0 4.15208 0H139.852C142.146 0 143.999 1.80067 143.999 4.01487L144 35.9904Z" fill="black"/>
<path d="M31.6884 19.7758C31.6571 16.4264 34.5349 14.7969 34.6665 14.7211C33.0367 12.4317 30.5105 12.1189 29.6228 12.0939C27.5011 11.8788 25.443 13.3171 24.3622 13.3171C23.2598 13.3171 21.5954 12.1147 19.8016 12.15C17.4933 12.1843 15.3339 13.4719 14.1495 15.4714C11.7053 19.5482 13.5282 25.5393 15.87 28.8346C17.0414 30.4485 18.4102 32.2505 20.2018 32.1871C21.9546 32.1175 22.6094 31.1105 24.7246 31.1105C26.8204 31.1105 27.4353 32.1871 29.2625 32.1466C31.1437 32.1175 32.328 30.5254 33.4584 28.897C34.8122 27.0472 35.3558 25.2254 35.3774 25.1319C35.3331 25.1174 31.724 23.7903 31.6884 19.7758Z" fill="white"/>
<path d="M28.2367 9.92611C29.1794 8.79025 29.8245 7.24493 29.6454 5.67676C28.2809 5.73495 26.5745 6.58607 25.5918 7.69699C24.7224 8.67593 23.9458 10.2805 24.1464 11.7894C25.6792 11.8996 27.253 11.0443 28.2367 9.92611Z" fill="white"/>
<path d="M57.0549 31.9554H54.6053L53.2635 27.8931H48.5994L47.3212 31.9554H44.9363L49.5572 18.1255H52.4113L57.0549 31.9554ZM52.859 26.1888L51.6455 22.5775C51.5171 22.2086 51.2766 21.3398 50.9217 19.9722H50.8786C50.7373 20.5604 50.5097 21.4292 50.1969 22.5775L49.005 26.1888H52.859Z" fill="white"/>
<path d="M68.9383 26.8466C68.9383 28.5426 68.4626 29.8832 67.5112 30.8673C66.6591 31.7434 65.6009 32.1809 64.3378 32.1809C62.9744 32.1809 61.995 31.7091 61.3985 30.7655H61.3554V36.0187H59.0557V25.2659C59.0557 24.1997 59.0265 23.1054 58.9705 21.983H60.9929L61.1213 23.5637H61.1644C61.9314 22.3728 63.0952 21.7783 64.6571 21.7783C65.8781 21.7783 66.8975 22.2428 67.7129 23.1729C68.5305 24.1041 68.9383 25.3283 68.9383 26.8466ZM66.5954 26.9276C66.5954 25.957 66.3689 25.1568 65.9137 24.527C65.4165 23.8703 64.7488 23.5419 63.9118 23.5419C63.3444 23.5419 62.8288 23.7248 62.3682 24.0854C61.9065 24.4491 61.6045 24.924 61.4632 25.5122C61.392 25.7866 61.3564 26.011 61.3564 26.1877V27.8505C61.3564 28.5758 61.5873 29.1879 62.0489 29.6878C62.5106 30.1877 63.1103 30.4371 63.8481 30.4371C64.7143 30.4371 65.3884 30.1149 65.8706 29.4727C66.3538 28.8294 66.5954 27.9814 66.5954 26.9276Z" fill="white"/>
<path d="M80.8437 26.8466C80.8437 28.5426 80.368 29.8832 79.4156 30.8673C78.5645 31.7434 77.5063 32.1809 76.2432 32.1809C74.8798 32.1809 73.9004 31.7091 73.305 30.7655H73.2619V36.0187H70.9622V25.2659C70.9622 24.1997 70.933 23.1054 70.877 21.983H72.8994L73.0278 23.5637H73.0709C73.8368 22.3728 75.0006 21.7783 76.5636 21.7783C77.7836 21.7783 78.8029 22.2428 79.6205 23.1729C80.4349 24.1041 80.8437 25.3283 80.8437 26.8466ZM78.5009 26.9276C78.5009 25.957 78.2733 25.1568 77.8181 24.527C77.3208 23.8703 76.6553 23.5419 75.8172 23.5419C75.2487 23.5419 74.7342 23.7248 74.2726 24.0854C73.8109 24.4491 73.5099 24.924 73.3686 25.5122C73.2985 25.7866 73.2619 26.011 73.2619 26.1877V27.8505C73.2619 28.5758 73.4927 29.1879 73.9522 29.6878C74.4139 30.1866 75.0136 30.4371 75.7535 30.4371C76.6197 30.4371 77.2939 30.1149 77.776 29.4727C78.2593 28.8294 78.5009 27.9814 78.5009 26.9276Z" fill="white"/>
<path d="M94.1541 28.077C94.1541 29.2534 93.7302 30.2105 92.8792 30.9494C91.944 31.7569 90.642 32.1601 88.9691 32.1601C87.4244 32.1601 86.1861 31.8733 85.2488 31.2986L85.7816 29.4519C86.7913 30.0401 87.899 30.3352 89.106 30.3352C89.9722 30.3352 90.6464 30.1461 91.1307 29.7699C91.6128 29.3937 91.8534 28.8887 91.8534 28.2589C91.8534 27.6977 91.6549 27.2249 91.2569 26.8414C90.861 26.4579 90.1998 26.1015 89.2765 25.772C86.7632 24.869 85.5077 23.546 85.5077 21.8064C85.5077 20.6695 85.9477 19.7373 86.829 19.012C87.707 18.2855 88.8784 17.9229 90.3433 17.9229C91.6495 17.9229 92.7346 18.1421 93.6008 18.5796L93.0259 20.3858C92.2169 19.9618 91.3022 19.7498 90.2785 19.7498C89.4695 19.7498 88.8375 19.942 88.3844 20.3245C88.0015 20.6664 87.8095 21.0831 87.8095 21.5767C87.8095 22.1234 88.0285 22.5754 88.4686 22.9308C88.8515 23.2592 89.5472 23.6146 90.5568 23.9981C91.7919 24.4772 92.699 25.0373 93.2826 25.6796C93.864 26.3197 94.1541 27.121 94.1541 28.077Z" fill="white"/>
<path d="M101.758 23.6456H99.2229V28.4873C99.2229 29.7187 99.6695 30.334 100.565 30.334C100.976 30.334 101.317 30.2997 101.586 30.2311L101.65 31.9136C101.197 32.0767 100.6 32.1588 99.8615 32.1588C98.9532 32.1588 98.2435 31.8917 97.7311 31.3586C97.2209 30.8245 96.9642 29.9287 96.9642 28.6702V23.6435H95.4541V21.9807H96.9642V20.1548L99.2229 19.498V21.9807H101.758V23.6456Z" fill="white"/>
<path d="M113.194 26.887C113.194 28.4199 112.739 29.6784 111.831 30.6625C110.879 31.6757 109.614 32.1808 108.038 32.1808C106.52 32.1808 105.311 31.6955 104.409 30.7249C103.507 29.7542 103.056 28.529 103.056 27.0523C103.056 25.507 103.52 24.2412 104.451 23.2571C105.38 22.2719 106.633 21.7793 108.209 21.7793C109.728 21.7793 110.95 22.2646 111.872 23.2363C112.754 24.1788 113.194 25.3958 113.194 26.887ZM110.808 26.9587C110.808 26.039 110.605 25.2503 110.191 24.5925C109.709 23.7964 109.02 23.3994 108.127 23.3994C107.202 23.3994 106.5 23.7975 106.018 24.5925C105.605 25.2513 105.401 26.0526 105.401 27.0003C105.401 27.92 105.605 28.7088 106.018 29.3656C106.515 30.1616 107.21 30.5586 108.106 30.5586C108.984 30.5586 109.674 30.1533 110.171 29.3448C110.595 28.6745 110.808 27.8774 110.808 26.9587Z" fill="white"/>
<path d="M120.669 23.9316C120.442 23.891 120.199 23.8703 119.945 23.8703C119.136 23.8703 118.51 24.1644 118.07 24.7536C117.687 25.2732 117.495 25.93 117.495 26.7229V31.9554H115.196L115.218 25.1236C115.218 23.9742 115.189 22.9277 115.132 21.9841H117.135L117.219 23.8921H117.282C117.525 23.2363 117.908 22.7084 118.432 22.3125C118.945 21.956 119.498 21.7783 120.094 21.7783C120.307 21.7783 120.499 21.7929 120.669 21.8188V23.9316Z" fill="white"/>
<path d="M130.955 26.4975C130.955 26.8945 130.928 27.2292 130.87 27.5025H123.971C123.998 28.4876 124.332 29.2411 124.972 29.7607C125.554 30.2252 126.306 30.458 127.229 30.458C128.25 30.458 129.182 30.3011 130.02 29.9862L130.381 31.5242C129.401 31.9358 128.245 32.1405 126.911 32.1405C125.306 32.1405 124.046 31.6853 123.129 30.776C122.214 29.8667 121.756 28.6456 121.756 27.1138C121.756 25.6101 122.182 24.3578 123.035 23.3591C123.928 22.2929 125.135 21.7598 126.654 21.7598C128.146 21.7598 129.275 22.2929 130.042 23.3591C130.649 24.2061 130.955 25.2536 130.955 26.4975ZM128.762 25.9229C128.777 25.2661 128.627 24.6987 128.315 24.2196C127.917 23.6033 127.306 23.2957 126.483 23.2957C125.731 23.2957 125.119 23.5961 124.652 24.1988C124.269 24.6779 124.042 25.2526 123.971 25.9218H128.762V25.9229Z" fill="white"/>
<path d="M52.0989 9.61712C52.0989 10.8403 51.7182 11.761 50.9577 12.3794C50.2534 12.9499 49.2524 13.2357 47.9558 13.2357C47.3129 13.2357 46.7628 13.2086 46.3022 13.1546V6.47141C46.9031 6.37788 47.5502 6.33008 48.2492 6.33008C49.4843 6.33008 50.4151 6.58884 51.0429 7.10637C51.7462 7.69145 52.0989 8.52802 52.0989 9.61712ZM50.907 9.64725C50.907 8.85433 50.6891 8.24639 50.2534 7.82239C49.8176 7.39943 49.1812 7.18743 48.3431 7.18743C47.9871 7.18743 47.684 7.21029 47.4327 7.2581V12.3388C47.5718 12.3596 47.8264 12.369 48.1964 12.369C49.0614 12.369 49.7291 12.1372 50.1994 11.6737C50.6697 11.2102 50.907 10.5347 50.907 9.64725Z" fill="white"/>
<path d="M58.4186 10.6854C58.4186 11.4389 58.1953 12.0561 57.7488 12.5404C57.2806 13.0382 56.6604 13.2866 55.8859 13.2866C55.1395 13.2866 54.5452 13.0486 54.1018 12.5706C53.6596 12.0936 53.4385 11.4919 53.4385 10.7665C53.4385 10.0079 53.6661 9.38537 54.1234 8.90213C54.5808 8.41889 55.1956 8.17676 55.9701 8.17676C56.7165 8.17676 57.3162 8.41474 57.7703 8.89174C58.2018 9.35523 58.4186 9.95382 58.4186 10.6854ZM57.2461 10.7208C57.2461 10.2687 57.1447 9.88107 56.943 9.55787C56.7057 9.16713 56.3681 8.97176 55.9291 8.97176C55.475 8.97176 55.1298 9.16713 54.8925 9.55787C54.6897 9.88107 54.5894 10.2749 54.5894 10.7405C54.5894 11.1926 54.6908 11.5802 54.8925 11.9034C55.1374 12.2941 55.4782 12.4895 55.9183 12.4895C56.3498 12.4895 56.6885 12.291 56.9322 11.893C57.1415 11.5636 57.2461 11.1728 57.2461 10.7208Z" fill="white"/>
<path d="M66.8928 8.27637L65.3018 13.1752H64.2663L63.6073 11.048C63.4401 10.5169 63.3041 9.98899 63.1984 9.46523H63.1779C63.0798 10.0035 62.9439 10.5304 62.7691 11.048L62.0691 13.1752H61.0217L59.5256 8.27637H60.6873L61.2623 10.6052C61.4014 11.156 61.5157 11.6808 61.6074 12.1776H61.6279C61.7121 11.7681 61.8512 11.2464 62.0475 10.6156L62.7691 8.27741H63.6903L64.3817 10.5658C64.5489 11.1238 64.6848 11.6611 64.7894 12.1786H64.8207C64.8973 11.6746 65.0127 11.1373 65.1659 10.5658L65.7829 8.27741H66.8928V8.27637Z" fill="white"/>
<path d="M72.7529 13.1756H71.6225V10.3697C71.6225 9.50506 71.2816 9.07275 70.5977 9.07275C70.2623 9.07275 69.9915 9.19122 69.7812 9.4292C69.573 9.66718 69.4673 9.94777 69.4673 10.2689V13.1745H68.3369V9.67653C68.3369 9.2463 68.3229 8.77969 68.2959 8.27463H69.2893L69.3422 9.04053H69.3735C69.5051 8.80255 69.7014 8.60614 69.9592 8.44922C70.2655 8.26632 70.6085 8.17383 70.9839 8.17383C71.4585 8.17383 71.8533 8.3214 72.1672 8.61757C72.5576 8.98026 72.7529 9.52169 72.7529 10.2408V13.1756Z" fill="white"/>
<path d="M75.8701 13.1755H74.7407V6.02881H75.8701V13.1755Z" fill="white"/>
<path d="M82.5258 10.6854C82.5258 11.4389 82.3025 12.0561 81.8559 12.5404C81.3878 13.0382 80.7665 13.2866 79.9931 13.2866C79.2456 13.2866 78.6513 13.0486 78.209 12.5706C77.7668 12.0936 77.5457 11.4919 77.5457 10.7665C77.5457 10.0079 77.7733 9.38537 78.2306 8.90213C78.6879 8.41889 79.3028 8.17676 80.0762 8.17676C80.8237 8.17676 81.4223 8.41474 81.8775 8.89174C82.309 9.35523 82.5258 9.95382 82.5258 10.6854ZM81.3522 10.7208C81.3522 10.2687 81.2508 9.88107 81.0491 9.55787C80.8129 9.16713 80.4742 8.97176 80.0363 8.97176C79.5811 8.97176 79.2359 9.16713 78.9997 9.55787C78.7969 9.88107 78.6966 10.2749 78.6966 10.7405C78.6966 11.1926 78.798 11.5802 78.9997 11.9034C79.2445 12.2941 79.5854 12.4895 80.0255 12.4895C80.4569 12.4895 80.7946 12.291 81.0383 11.893C81.2487 11.5636 81.3522 11.1728 81.3522 10.7208Z" fill="white"/>
<path d="M87.9966 13.1754H86.9816L86.8975 12.6111H86.8662C86.5189 13.0611 86.0238 13.2866 85.3809 13.2866C84.9009 13.2866 84.5126 13.138 84.2203 12.8428C83.9549 12.5747 83.8223 12.2411 83.8223 11.8452C83.8223 11.2466 84.0811 10.7904 84.6021 10.4745C85.122 10.1585 85.8534 10.0037 86.795 10.011V9.91952C86.795 9.27417 86.4434 8.95201 85.739 8.95201C85.2375 8.95201 84.7952 9.0736 84.4134 9.3147L84.1836 8.59972C84.6561 8.31809 85.2396 8.17676 85.9278 8.17676C87.2567 8.17676 87.9233 8.85225 87.9233 10.2032V12.0073C87.9233 12.4968 87.9481 12.8865 87.9966 13.1754ZM86.8231 11.4919V10.7363C85.5761 10.7156 84.9527 11.045 84.9527 11.7236C84.9527 11.9792 85.0239 12.1705 85.1695 12.2983C85.3151 12.4261 85.5006 12.4895 85.7218 12.4895C85.9699 12.4895 86.2018 12.4136 86.4132 12.263C86.6257 12.1112 86.7562 11.919 86.8047 11.6831C86.8166 11.6301 86.8231 11.5656 86.8231 11.4919Z" fill="white"/>
<path d="M94.4196 13.1755H93.4165L93.3636 12.3888H93.3323C93.012 12.9874 92.4662 13.2867 91.6992 13.2867C91.0866 13.2867 90.5764 13.0549 90.1719 12.5915C89.7674 12.128 89.5657 11.5263 89.5657 10.7874C89.5657 9.99446 89.7846 9.35222 90.2247 8.86171C90.6508 8.40445 91.1729 8.17583 91.7942 8.17583C92.4769 8.17583 92.9548 8.39718 93.2266 8.84093H93.2482V6.02881H94.3797V11.8557C94.3797 12.3327 94.3926 12.7723 94.4196 13.1755ZM93.2482 11.1095V10.2927C93.2482 10.1514 93.2374 10.0371 93.2169 9.94977C93.1533 9.68789 93.0163 9.46757 92.8081 9.28987C92.5978 9.11216 92.3443 9.02279 92.052 9.02279C91.6302 9.02279 91.3001 9.18387 91.0574 9.50706C90.8169 9.83026 90.695 10.2428 90.695 10.7468C90.695 11.2311 90.8104 11.6239 91.0423 11.9264C91.2872 12.2485 91.6173 12.4096 92.0304 12.4096C92.4014 12.4096 92.6981 12.2755 92.9235 12.0064C93.1414 11.758 93.2482 11.4587 93.2482 11.1095Z" fill="white"/>
<path d="M104.088 10.6854C104.088 11.4389 103.865 12.0561 103.418 12.5404C102.95 13.0382 102.331 13.2866 101.555 13.2866C100.81 13.2866 100.215 13.0486 99.771 12.5706C99.3288 12.0936 99.1077 11.4919 99.1077 10.7665C99.1077 10.0079 99.3353 9.38537 99.7926 8.90213C100.25 8.41889 100.865 8.17676 101.64 8.17676C102.386 8.17676 102.987 8.41474 103.44 8.89174C103.871 9.35523 104.088 9.95382 104.088 10.6854ZM102.916 10.7208C102.916 10.2687 102.815 9.88107 102.613 9.55787C102.375 9.16713 102.038 8.97176 101.598 8.97176C101.145 8.97176 100.8 9.16713 100.562 9.55787C100.359 9.88107 100.259 10.2749 100.259 10.7405C100.259 11.1926 100.36 11.5802 100.562 11.9034C100.807 12.2941 101.147 12.4895 101.587 12.4895C102.019 12.4895 102.359 12.291 102.602 11.893C102.811 11.5636 102.916 11.1728 102.916 10.7208Z" fill="white"/>
<path d="M110.166 13.1756H109.037V10.3697C109.037 9.50506 108.696 9.07275 108.011 9.07275C107.675 9.07275 107.405 9.19122 107.195 9.4292C106.986 9.66718 106.881 9.94777 106.881 10.2689V13.1745H105.75V9.67653C105.75 9.2463 105.737 8.77969 105.71 8.27463H106.702L106.755 9.04053H106.786C106.919 8.80255 107.115 8.60614 107.372 8.44922C107.68 8.26632 108.022 8.17383 108.398 8.17383C108.871 8.17383 109.266 8.3214 109.58 8.61757C109.972 8.98026 110.166 9.52169 110.166 10.2408V13.1756Z" fill="white"/>
<path d="M117.774 9.09246H116.529V11.4723C116.529 12.0771 116.75 12.3795 117.188 12.3795C117.391 12.3795 117.559 12.3629 117.692 12.3286L117.721 13.1548C117.498 13.2358 117.204 13.2763 116.843 13.2763C116.396 13.2763 116.049 13.1454 115.798 12.8835C115.545 12.6216 115.42 12.181 115.42 11.5627V9.09246H114.677V8.27668H115.42V7.3788L116.528 7.05664V8.27564H117.773V9.09246H117.774Z" fill="white"/>
<path d="M123.758 13.1755H122.627V10.3904C122.627 9.51226 122.286 9.07267 121.603 9.07267C121.079 9.07267 120.721 9.32728 120.524 9.8365C120.491 9.94353 120.471 10.0745 120.471 10.2283V13.1745H119.342V6.02881H120.471V8.98122H120.493C120.849 8.44395 121.359 8.17583 122.02 8.17583C122.488 8.17583 122.876 8.3234 123.183 8.61957C123.566 8.98849 123.758 9.5372 123.758 10.2626V13.1755Z" fill="white"/>
<path d="M129.931 10.4943C129.931 10.6897 129.916 10.8539 129.889 10.9879H126.499C126.514 11.4722 126.676 11.8411 126.99 12.0968C127.276 12.3254 127.646 12.4397 128.099 12.4397C128.601 12.4397 129.058 12.3628 129.47 12.208L129.647 12.9645C129.165 13.1661 128.598 13.2669 127.941 13.2669C127.154 13.2669 126.533 13.0435 126.085 12.5966C125.634 12.1498 125.41 11.5501 125.41 10.7977C125.41 10.0589 125.619 9.44364 126.038 8.95313C126.476 8.42936 127.068 8.16748 127.816 8.16748C128.547 8.16748 129.103 8.42936 129.478 8.95313C129.781 9.36881 129.931 9.88322 129.931 10.4943ZM128.852 10.2127C128.861 9.88946 128.787 9.61095 128.633 9.37609C128.437 9.07368 128.138 8.92195 127.734 8.92195C127.365 8.92195 127.064 9.06952 126.834 9.3657C126.647 9.6016 126.535 9.88322 126.499 10.2127H128.852Z" fill="white"/>
</svg>
