<svg width="136" height="40" viewBox="0 0 136 40" fill="none" xmlns="http://www.w3.org/2000/svg">
<path d="M130.963 40H5.03704C2.26793 40 0 37.7488 0 35V5.00001C0 2.25126 2.26793 6.83814e-06 5.03704 6.83814e-06H130.963C133.732 6.83814e-06 136 2.25126 136 5.00001V35C136 37.7488 133.732 40 130.963 40Z" fill="black"/>
<path d="M47.7689 10.244C47.7689 11.079 47.517 11.7477 47.0209 12.2465C46.4504 12.8377 45.7075 13.1352 44.797 13.1352C43.9269 13.1352 43.1839 12.8327 42.5744 12.2365C41.9637 11.6315 41.6589 10.889 41.6589 10.0002C41.6589 9.11148 41.9637 8.36898 42.5744 7.76898C43.1839 7.16773 43.9269 6.86523 44.797 6.86523C45.2302 6.86523 45.6432 6.95398 46.0374 7.11898C46.4303 7.28523 46.7501 7.51023 46.9818 7.78773L46.4555 8.31523C46.0512 7.84149 45.5009 7.60774 44.797 7.60774C44.1623 7.60774 43.612 7.82773 43.1449 8.27148C42.6827 8.71648 42.451 9.29273 42.451 10.0002C42.451 10.7077 42.6827 11.289 43.1449 11.734C43.612 12.1727 44.1623 12.3977 44.797 12.3977C45.4707 12.3977 46.0374 12.1727 46.4844 11.729C46.7791 11.4352 46.9466 11.0302 46.9906 10.5127H44.797V9.79023H47.7235C47.7588 9.94648 47.7689 10.0977 47.7689 10.244Z" fill="white" stroke="white" stroke-width="0.16" stroke-miterlimit="10"/>
<path d="M52.4115 7.73869H49.6625V9.63869H52.1407V10.3612H49.6625V12.2612H52.4115V12.9974H48.8843V7.00244H52.4115V7.73869Z" fill="white" stroke="white" stroke-width="0.16" stroke-miterlimit="10"/>
<path d="M55.688 12.9974H54.9098V7.73869H53.2236V7.00244H57.3754V7.73869H55.688V12.9974Z" fill="white" stroke="white" stroke-width="0.16" stroke-miterlimit="10"/>
<path d="M60.3804 12.9974V7.00244H61.1573V12.9974H60.3804Z" fill="white" stroke="white" stroke-width="0.16" stroke-miterlimit="10"/>
<path d="M64.6013 12.9974H63.8294V7.73869H62.137V7.00244H66.2938V7.73869H64.6013V12.9974Z" fill="white" stroke="white" stroke-width="0.16" stroke-miterlimit="10"/>
<path d="M74.1539 12.2265C73.5583 12.8327 72.8204 13.1352 71.9402 13.1352C71.0549 13.1352 70.317 12.8327 69.7214 12.2265C69.127 11.6215 68.8311 10.879 68.8311 10.0002C68.8311 9.12148 69.127 8.37898 69.7214 7.77398C70.317 7.16773 71.0549 6.86523 71.9402 6.86523C72.8153 6.86523 73.5533 7.16773 74.1489 7.77898C74.7483 8.38898 75.0442 9.12648 75.0442 10.0002C75.0442 10.879 74.7483 11.6215 74.1539 12.2265ZM70.2968 11.724C70.7451 12.1727 71.2904 12.3977 71.9402 12.3977C72.5849 12.3977 73.1352 12.1727 73.5785 11.724C74.0255 11.2752 74.2522 10.699 74.2522 10.0002C74.2522 9.30148 74.0255 8.72523 73.5785 8.27648C73.1352 7.82773 72.5849 7.60273 71.9402 7.60273C71.2904 7.60273 70.7451 7.82773 70.2968 8.27648C69.8498 8.72523 69.6231 9.30148 69.6231 10.0002C69.6231 10.699 69.8498 11.2752 70.2968 11.724Z" fill="white" stroke="white" stroke-width="0.16" stroke-miterlimit="10"/>
<path d="M76.136 12.9974V7.00244H77.0804L80.017 11.6649H80.051L80.017 10.5124V7.00244H80.794V12.9974H79.983L76.9079 8.10494H76.8739L76.9079 9.26244V12.9974H76.136Z" fill="white" stroke="white" stroke-width="0.16" stroke-miterlimit="10"/>
<path d="M68.6397 21.7526C66.2735 21.7526 64.3406 23.5401 64.3406 26.0064C64.3406 28.4526 66.2735 30.2589 68.6397 30.2589C71.0109 30.2589 72.9438 28.4526 72.9438 26.0064C72.9438 23.5401 71.0109 21.7526 68.6397 21.7526ZM68.6397 28.5839C67.3414 28.5839 66.2244 27.5201 66.2244 26.0064C66.2244 24.4726 67.3414 23.4276 68.6397 23.4276C69.938 23.4276 71.06 24.4726 71.06 26.0064C71.06 27.5201 69.938 28.5839 68.6397 28.5839ZM59.2595 21.7526C56.8883 21.7526 54.9604 23.5401 54.9604 26.0064C54.9604 28.4526 56.8883 30.2589 59.2595 30.2589C61.6294 30.2589 63.5586 28.4526 63.5586 26.0064C63.5586 23.5401 61.6294 21.7526 59.2595 21.7526ZM59.2595 28.5839C57.9599 28.5839 56.8392 27.5201 56.8392 26.0064C56.8392 24.4726 57.9599 23.4276 59.2595 23.4276C60.5578 23.4276 61.6747 24.4726 61.6747 26.0064C61.6747 27.5201 60.5578 28.5839 59.2595 28.5839ZM48.0974 23.0564V24.8639H52.4456C52.3184 25.8739 51.9784 26.6164 51.4571 27.1339C50.8224 27.7589 49.8339 28.4526 48.0974 28.4526C45.4215 28.4526 43.3261 26.3089 43.3261 23.6526C43.3261 20.9964 45.4215 18.8526 48.0974 18.8526C49.5443 18.8526 50.597 19.4139 51.374 20.1414L52.6572 18.8676C51.5704 17.8376 50.1248 17.0464 48.0974 17.0464C44.4279 17.0464 41.344 20.0101 41.344 23.6526C41.344 27.2951 44.4279 30.2589 48.0974 30.2589C50.0807 30.2589 51.5704 29.6139 52.7415 28.4039C53.9416 27.2126 54.3156 25.5376 54.3156 24.1851C54.3156 23.7651 54.2804 23.3789 54.2174 23.0564H48.0974ZM93.7405 24.4576C93.3866 23.5064 92.2949 21.7526 90.071 21.7526C87.8673 21.7526 86.0326 23.4764 86.0326 26.0064C86.0326 28.3889 87.8484 30.2589 90.2826 30.2589C92.2508 30.2589 93.3866 29.0676 93.8538 28.3739L92.3931 27.4076C91.9058 28.1151 91.2421 28.5839 90.2826 28.5839C89.3293 28.5839 88.6455 28.1501 88.2073 27.2951L93.9382 24.9414L93.7405 24.4576ZM87.8975 25.8739C87.8484 24.2339 89.1807 23.3939 90.1352 23.3939C90.8832 23.3939 91.5179 23.7651 91.7295 24.2964L87.8975 25.8739ZM83.2395 30.0001H85.1234V17.5001H83.2395V30.0001ZM80.1544 22.7001H80.0914C79.6683 22.2026 78.8611 21.7526 77.8386 21.7526C75.6928 21.7526 73.7309 23.6226 73.7309 26.0201C73.7309 28.4039 75.6928 30.2589 77.8386 30.2589C78.8611 30.2589 79.6683 29.8051 80.0914 29.2926H80.1544V29.9026C80.1544 31.5289 79.2792 32.4026 77.8675 32.4026C76.7166 32.4026 76.0026 31.5776 75.7079 30.8839L74.0696 31.5626C74.5418 32.6901 75.7923 34.0776 77.8675 34.0776C80.0763 34.0776 81.94 32.7876 81.94 29.6489V22.0114H80.1544V22.7001ZM77.9998 28.5839C76.7015 28.5839 75.6147 27.5051 75.6147 26.0201C75.6147 24.5214 76.7015 23.4276 77.9998 23.4276C79.2792 23.4276 80.2878 24.5214 80.2878 26.0201C80.2878 27.5051 79.2792 28.5839 77.9998 28.5839ZM102.56 17.5001H98.0547V30.0001H99.9335V25.2639H102.56C104.647 25.2639 106.693 23.7651 106.693 21.3814C106.693 18.9989 104.642 17.5001 102.56 17.5001ZM102.609 23.5251H99.9335V19.2389H102.609C104.012 19.2389 104.813 20.3951 104.813 21.3814C104.813 22.3489 104.012 23.5251 102.609 23.5251ZM114.224 21.7289C112.866 21.7289 111.454 22.3239 110.874 23.6426L112.541 24.3364C112.9 23.6426 113.56 23.4176 114.258 23.4176C115.232 23.4176 116.221 23.9989 116.236 25.0251V25.1564C115.896 24.9614 115.168 24.6726 114.273 24.6726C112.477 24.6726 110.647 25.6539 110.647 27.4851C110.647 29.1601 112.118 30.2389 113.772 30.2389C115.036 30.2389 115.733 29.6726 116.172 29.0139H116.236V29.9801H118.05V25.1851C118.05 22.9689 116.383 21.7289 114.224 21.7289ZM113.997 28.5789C113.382 28.5789 112.526 28.2764 112.526 27.5201C112.526 26.5526 113.594 26.1814 114.518 26.1814C115.346 26.1814 115.733 26.3626 116.236 26.6014C116.089 27.7589 115.085 28.5789 113.997 28.5789ZM124.662 22.0026L122.502 27.4214H122.438L120.205 22.0026H118.179L121.534 29.5751L119.62 33.7889H121.583L126.752 22.0026H124.662ZM107.726 30.0001H109.61V17.5001H107.726V30.0001Z" fill="white"/>
<path d="M10.5121 7.53869C10.2162 7.84619 10.0449 8.32494 10.0449 8.94494V31.0599C10.0449 31.6799 10.2162 32.1587 10.5121 32.4662L10.5851 32.5337L23.0694 20.1462V19.8537L10.5851 7.46619L10.5121 7.53869Z" fill="url(#paint0_linear_182_3416)"/>
<path d="M27.2266 24.2773L23.0698 20.1461V19.8536L27.2317 15.7223L27.3249 15.7761L32.2536 18.5598C33.6602 19.3498 33.6602 20.6498 32.2536 21.4448L27.3249 24.2236L27.2266 24.2773Z" fill="url(#paint1_linear_182_3416)"/>
<path d="M27.3246 24.224L23.0695 20.0002L10.5122 32.4665C10.9794 32.954 11.7412 33.0127 12.6076 32.5252L27.3246 24.224Z" fill="url(#paint2_linear_182_3416)"/>
<path d="M27.3246 15.7763L12.6076 7.475C11.7412 6.9925 10.9794 7.05125 10.5122 7.53875L23.0695 20L27.3246 15.7763Z" fill="url(#paint3_linear_182_3416)"/>
<defs>
<linearGradient id="paint0_linear_182_3416" x1="21.961" y1="31.2902" x2="5.17904" y2="14.384" gradientUnits="userSpaceOnUse">
<stop stop-color="#00A0FF"/>
<stop offset="0.0066" stop-color="#00A1FF"/>
<stop offset="0.2601" stop-color="#00BEFF"/>
<stop offset="0.5122" stop-color="#00D2FF"/>
<stop offset="0.7604" stop-color="#00DFFF"/>
<stop offset="1" stop-color="#00E3FF"/>
</linearGradient>
<linearGradient id="paint1_linear_182_3416" x1="34.0852" y1="19.9984" x2="9.70909" y2="19.9984" gradientUnits="userSpaceOnUse">
<stop stop-color="#FFE000"/>
<stop offset="0.4087" stop-color="#FFBD00"/>
<stop offset="0.7754" stop-color="#FFA500"/>
<stop offset="1" stop-color="#FF9C00"/>
</linearGradient>
<linearGradient id="paint2_linear_182_3416" x1="25.0108" y1="17.7041" x2="2.25313" y2="-5.22213" gradientUnits="userSpaceOnUse">
<stop stop-color="#FF3A44"/>
<stop offset="1" stop-color="#C31162"/>
</linearGradient>
<linearGradient id="paint3_linear_182_3416" x1="7.35127" y1="39.8238" x2="17.5136" y2="29.5863" gradientUnits="userSpaceOnUse">
<stop stop-color="#32A071"/>
<stop offset="0.0685" stop-color="#2DA771"/>
<stop offset="0.4762" stop-color="#15CF74"/>
<stop offset="0.8009" stop-color="#06E775"/>
<stop offset="1" stop-color="#00F076"/>
</linearGradient>
</defs>
</svg>
