<svg width="20" height="20" viewBox="0 0 20 20" fill="none" xmlns="http://www.w3.org/2000/svg">
<path d="M19.8951 18.5527L10.8951 0.552672C10.5561 -0.124328 9.44508 -0.124328 9.10608 0.552672L0.106076 18.5527C-0.0479243 18.8627 -0.0329243 19.2297 0.150076 19.5267C0.332076 19.8207 0.653076 19.9997 1.00008 19.9997H19.0001C19.3471 19.9997 19.6681 19.8197 19.8511 19.5257C20.0331 19.2297 20.0491 18.8637 19.8951 18.5527ZM9.00008 7.99967H11.0001V13.9997H9.00008V7.99967ZM10.0001 17.2497C9.31008 17.2497 8.75008 16.6907 8.75008 15.9997C8.75008 15.3097 9.31008 14.7497 10.0001 14.7497C10.6901 14.7497 11.2501 15.3097 11.2501 15.9997C11.2501 16.6907 10.6901 17.2497 10.0001 17.2497Z" fill="#F99F00"/>
</svg>
