<svg width="27" height="24" viewBox="0 0 27 24" fill="none" xmlns="http://www.w3.org/2000/svg">
<path d="M24.3046 0H2.33325C1.0694 0 0 1.03125 0 2.25V21.75C0 23 1.0694 24 2.33325 24H24.3046C25.6009 24 26.6379 22.9687 26.6379 21.75V2.25C26.6379 1.03125 25.6009 0 24.3046 0ZM15.4902 7.53125C17.2077 4.84375 19.3465 4.28125 19.9298 5.75C20.5131 7.21875 19.9298 13 15.879 11.625C15.1985 11.4375 13.7726 10.25 15.4902 7.53125ZM12.1523 2.90625C13.5782 2.1875 14.842 3.96875 14.2587 7.09375C13.6754 10.1875 11.7959 10.1563 11.1477 9.90625C7.12936 8.34375 10.694 3.65625 12.1523 2.90625ZM6.2868 6.3125C7.3562 5.46875 8.68486 6.75 8.74967 9.375C8.81448 12 7.25899 12.2813 6.67568 12.1875C3.1434 11.5938 5.2174 7.15625 6.2868 6.3125ZM16.2031 20.625C14.8096 21.875 13.0273 21 12.2495 20.4063C11.8607 20.125 11.4718 19.75 10.9209 19.4375C10.7264 19.3125 10.4996 19.2188 10.2404 19.125C9.98111 19.0313 9.72186 18.9688 9.49501 18.9062C8.84689 18.7812 8.29598 18.8125 7.80989 18.7812C6.8053 18.7187 4.89333 18.25 4.6989 16.4375C4.53687 14.875 5.57386 13.75 8.10155 12.9062C9.78667 12.3437 11.0505 10.75 12.7032 10.9063C12.7356 10.9063 12.8004 10.9062 12.8653 10.9375C13.0597 10.9688 13.2217 11.0312 13.3838 11.0938C13.5458 11.1563 13.7078 11.2188 13.8698 11.3125C13.9023 11.3438 13.9671 11.375 13.9995 11.4062C15.3605 12.3438 15.1985 14.3438 16.0735 15.8438C17.4021 18.0625 17.4021 19.5938 16.2031 20.625ZM17.629 16.2188C17.1105 15.9375 16.1707 14.7188 18.0178 12.7813C19.8974 10.8438 21.7446 10.75 21.9714 12.0625C22.1658 13.375 20.6751 18 17.629 16.2188Z" fill="#989898"/>
</svg>
