<svg width="64" height="60" viewBox="0 0 64 60" fill="none" xmlns="http://www.w3.org/2000/svg">
<path d="M58.3312 0H5.5998C2.56657 0 0 2.57812 0 5.625V54.375C0 57.5 2.56657 60 5.5998 60H58.3312C61.4422 60 63.931 57.4219 63.931 54.375V5.625C63.931 2.57812 61.4422 0 58.3312 0ZM37.1764 18.8281C41.2985 12.1094 46.4317 10.7031 47.8316 14.375C49.2316 18.0469 47.8316 32.5 38.1097 29.0625C36.4765 28.5937 33.0544 25.625 37.1764 18.8281ZM29.1656 7.26562C32.5877 5.46875 35.6209 9.92188 34.221 17.7344C32.821 25.4687 28.3101 25.3906 26.7546 24.7656C17.1105 20.8594 25.6657 9.14062 29.1656 7.26562ZM15.0883 15.7812C17.6549 13.6719 20.8437 16.875 20.9992 23.4375C21.1548 30 17.4216 30.7031 16.0217 30.4687C7.54418 28.9844 12.5218 17.8906 15.0883 15.7812ZM38.8875 51.5625C35.5432 54.6875 31.2655 52.5 29.3989 51.0156C28.4656 50.3125 27.5323 49.375 26.2102 48.5937C25.7435 48.2812 25.1991 48.0469 24.5769 47.8125C23.9547 47.5781 23.3325 47.4219 22.7881 47.2656C21.2326 46.9531 19.9104 47.0312 18.7438 46.9531C16.3328 46.7969 11.744 45.625 11.2774 41.0937C10.8885 37.1875 13.3773 34.375 19.4437 32.2656C23.488 30.8594 26.5213 26.875 30.4878 27.2656C30.5656 27.2656 30.7211 27.2656 30.8767 27.3437C31.3433 27.4219 31.7322 27.5781 32.1211 27.7344C32.5099 27.8906 32.8988 28.0469 33.2877 28.2812C33.3655 28.3594 33.521 28.4375 33.5988 28.5156C36.8653 30.8594 36.4765 35.8594 38.5764 39.6094C41.7652 45.1562 41.7652 48.9844 38.8875 51.5625ZM42.3096 40.5469C41.0652 39.8438 38.8097 36.7969 43.2429 31.9531C47.7538 27.1094 52.187 26.875 52.7314 30.1562C53.1981 33.4375 49.6204 45 42.3096 40.5469Z" fill="#27AAE1"/>
</svg>
