<svg width="24" height="24" viewBox="0 0 24 24" fill="none" xmlns="http://www.w3.org/2000/svg">
<path d="M20.5145 11.4832L12 8V2.625H9L6.2916 3.625H2V19H23V15.1854C23 14.3913 22.7636 13.6151 22.321 12.9558C21.8784 12.2965 21.2495 11.7839 20.5145 11.4832ZM21.15 17.15H3.85V5.475H6.6223L9.3306 4.475H10.15V6.1938H9.2021C8.96341 6.1938 8.73449 6.28862 8.5657 6.4574C8.39692 6.62619 8.3021 6.85511 8.3021 7.0938C8.3021 7.33249 8.39692 7.56141 8.5657 7.7302C8.73449 7.89898 8.96341 7.9938 9.2021 7.9938H10.15V8.962L9.6357 9.4537C9.46322 9.6187 9.36335 9.84547 9.35806 10.0841C9.35277 10.3227 9.4425 10.5537 9.6075 10.7262C9.7725 10.8987 9.99927 10.9986 10.2379 11.0038C10.4765 11.0091 10.7075 10.9194 10.88 10.7544L11.7691 9.9044L12.8436 10.3444L12.4557 11.2936C12.3655 11.5145 12.3667 11.7622 12.4591 11.9822C12.5515 12.2023 12.7274 12.3766 12.9483 12.4669C13.0561 12.5114 13.1716 12.5343 13.2883 12.5343C13.4671 12.5343 13.642 12.4811 13.7904 12.3813C13.9389 12.2816 14.0542 12.1399 14.1218 11.9743L14.5095 11.026L15.896 11.5932L15.5373 12.4699C15.447 12.6909 15.4481 12.9388 15.5404 13.159C15.6327 13.3792 15.8086 13.5537 16.0295 13.6443C16.1375 13.688 16.253 13.7105 16.3695 13.7107C16.5483 13.7107 16.7232 13.6575 16.8716 13.5577C17.0201 13.458 17.1354 13.3163 17.203 13.1507L17.5617 12.2743L19.814 13.1958C20.2097 13.3565 20.5483 13.6319 20.7863 13.9865C21.0243 14.3411 21.151 14.7587 21.1499 15.1858L21.15 17.15Z" fill="black"/>
</svg>
