<svg width="24" height="24" viewBox="0 0 24 24" fill="none" xmlns="http://www.w3.org/2000/svg">
<path d="M23 8.5555H20.3635C20.1792 7.70983 19.9523 6.87403 19.6835 6.0513C19.4844 5.45401 19.1024 4.93449 18.5917 4.56634C18.0809 4.19818 17.4673 4.00005 16.8377 4H7.1623C6.53265 3.99999 5.91895 4.19809 5.40814 4.56625C4.89734 4.93441 4.51532 5.45396 4.3162 6.0513C4.04743 6.87403 3.82047 7.70983 3.6362 8.5555H1V9.9583L3.2481 10.7389C3.08899 11.8732 3.0061 13.0168 3 14.1622V20.34C3 20.4267 3.01707 20.5125 3.05024 20.5926C3.08341 20.6726 3.13202 20.7454 3.19331 20.8067C3.2546 20.868 3.32735 20.9166 3.40743 20.9498C3.4875 20.9829 3.57333 21 3.66 21H4.34C4.42667 21 4.5125 20.9829 4.59257 20.9498C4.67265 20.9166 4.7454 20.868 4.80669 20.8067C4.86798 20.7454 4.91659 20.6726 4.94976 20.5926C4.98293 20.5125 5 20.4267 5 20.34V19H19V20.34C19 20.515 19.0695 20.6829 19.1933 20.8067C19.3171 20.9305 19.485 21 19.66 21H20.34C20.515 21 20.6829 20.9305 20.8067 20.8067C20.9305 20.6829 21 20.515 21 20.34V14.1622C20.9939 13.0168 20.911 11.8732 20.7519 10.7389L23 9.9583V8.5555ZM6.2136 6.6838C6.2798 6.48457 6.40709 6.31127 6.5774 6.18852C6.7477 6.06576 6.95236 5.9998 7.1623 6H16.8377C17.0476 5.99979 17.2523 6.06574 17.4226 6.1885C17.5929 6.31126 17.7202 6.48457 17.7864 6.6838C18.1436 7.76766 18.4218 8.87595 18.6189 10H5.3811C5.57819 8.87595 5.85642 7.76766 6.2136 6.6838ZM19 17H5V14.1622C5 13.4381 5.042 12.7177 5.1078 12H18.8922C18.958 12.7177 19 13.4381 19 14.1622V17ZM7.5 13.1389C7.25277 13.1389 7.0111 13.2122 6.80554 13.3496C6.59998 13.4869 6.43976 13.6821 6.34515 13.9105C6.25054 14.139 6.22579 14.3903 6.27402 14.6328C6.32225 14.8752 6.4413 15.098 6.61612 15.2728C6.79093 15.4476 7.01366 15.5667 7.25614 15.6149C7.49861 15.6631 7.74995 15.6384 7.97835 15.5437C8.20676 15.4491 8.40199 15.2889 8.53934 15.0834C8.67669 14.8778 8.75 14.6361 8.75 14.3889C8.75 14.0574 8.6183 13.7394 8.38388 13.505C8.14946 13.2706 7.83152 13.1389 7.5 13.1389ZM16.5 13.1389C16.2528 13.1389 16.0111 13.2122 15.8055 13.3496C15.6 13.4869 15.4398 13.6821 15.3452 13.9105C15.2505 14.139 15.2258 14.3903 15.274 14.6328C15.3222 14.8752 15.4413 15.098 15.6161 15.2728C15.7909 15.4476 16.0137 15.5667 16.2561 15.6149C16.4986 15.6631 16.7499 15.6384 16.9784 15.5437C17.2068 15.4491 17.402 15.2889 17.5393 15.0834C17.6767 14.8778 17.75 14.6361 17.75 14.3889C17.75 14.0574 17.6183 13.7394 17.3839 13.505C17.1495 13.2706 16.8315 13.1389 16.5 13.1389Z" fill="black"/>
</svg>
