<svg width="28" height="28" viewBox="0 0 28 28" fill="none" xmlns="http://www.w3.org/2000/svg">
<g clip-path="url(#clip0_1866_6431)">
<path fill-rule="evenodd" clip-rule="evenodd" d="M23.8207 19.5053C24.9827 17.8778 25.6663 15.9307 25.6663 13.833C25.6663 7.90867 20.3102 3.33301 13.9997 3.33301C7.68917 3.33301 2.33301 7.90867 2.33301 13.833C2.33301 19.7573 7.68917 24.333 13.9997 24.333C15.0998 24.333 16.1662 24.1965 17.1788 23.9387C18.1836 24.8235 19.3369 25.5238 20.5855 26.0072C21.8642 26.4925 23.3202 26.8425 24.698 26.6488C24.8941 26.6151 25.0782 26.5318 25.233 26.4068C25.3878 26.2818 25.508 26.1194 25.5823 25.9348C25.6553 25.7467 25.6794 25.5431 25.6523 25.3432C25.6251 25.1432 25.5477 24.9534 25.4272 24.7915C24.3165 23.2585 23.3645 21.4502 23.8207 19.5065V19.5053ZM13.9997 5.66634C8.71234 5.66634 4.66634 9.44751 4.66634 13.833C4.66634 18.2173 8.71234 21.9997 13.9997 21.9997C15.3367 21.9997 16.592 21.6963 17.8555 21.2997C19.0642 22.611 20.5365 23.6295 22.2632 24.1043C21.3275 22.3135 21.1478 20.3757 21.6973 18.453C22.7077 17.1032 23.333 15.5363 23.333 13.833C23.333 9.44751 19.287 5.66634 13.9997 5.66634Z" fill="#9DA1A3"/>
</g>
<defs>
<clipPath id="clip0_1866_6431">
<rect width="28" height="28" fill="white"/>
</clipPath>
</defs>
</svg>
