<svg width="28" height="28" viewBox="0 0 28 28" fill="none" xmlns="http://www.w3.org/2000/svg">
<path fill-rule="evenodd" clip-rule="evenodd" d="M13.4782 2.45618C13.8067 2.29195 14.1933 2.29195 14.5217 2.45618L23.8551 7.12284C24.2503 7.32047 24.5 7.72444 24.5 8.16634V19.833C24.5 20.2749 24.2503 20.6789 23.8551 20.8765L14.5217 25.5432C14.1933 25.7074 13.8067 25.7074 13.4782 25.5432L4.14492 20.8765C3.74967 20.6789 3.5 20.2749 3.5 19.833V8.16634C3.5 7.72444 3.74967 7.32047 4.14492 7.12284L13.4782 2.45618ZM5.83333 10.054V19.112L12.8333 22.612V13.554L5.83333 10.054ZM15.1667 13.554V22.612L22.1667 19.112V10.054L15.1667 13.554ZM20.7246 8.16634L14 11.5286L7.27541 8.16634L14 4.80405L20.7246 8.16634Z" fill="#9DA1A3"/>
</svg>
