<svg width="28" height="28" viewBox="0 0 28 28" fill="none" xmlns="http://www.w3.org/2000/svg">
<path fill-rule="evenodd" clip-rule="evenodd" d="M9.57143 4.39145C9.76884 4.19577 10.0366 4.08584 10.3158 4.08584L16.1957 4.08595L21.8948 9.73508L21.8948 19.737C21.8948 20.0137 21.7839 20.2791 21.5865 20.4748C21.3891 20.6704 21.1214 20.7804 20.8422 20.7804H10.3158C10.0366 20.7804 9.76884 20.6704 9.57143 20.4748C9.37402 20.2791 9.26312 20.0137 9.26312 19.737V5.12925C9.26312 4.85252 9.37402 4.58712 9.57143 4.39145ZM10.3158 1.99902C9.47822 1.99902 8.67499 2.32881 8.08277 2.91585C7.49064 3.50278 7.15794 4.2988 7.15783 5.12884C6.32033 5.12887 5.51714 5.45865 4.92493 6.04566C4.33271 6.63269 4 7.42888 4 8.25907V22.8668C4 23.697 4.33271 24.4932 4.92493 25.0802C5.51716 25.6672 6.32039 25.997 7.15793 25.997H17.6843C18.5219 25.997 19.3251 25.6672 19.9173 25.0802C20.5095 24.4933 20.8422 23.6972 20.8423 22.8672C21.6798 22.8672 22.483 22.5374 23.0752 21.9504C23.6674 21.3633 24.0001 20.5672 24.0001 19.737V9.73463C24 9.18127 23.778 8.65051 23.3833 8.25925L17.6844 2.61035C17.2897 2.21904 16.7541 1.99914 16.1958 1.99902H10.3158ZM18.737 22.8672H10.3158C9.47822 22.8672 8.67499 22.5374 8.08277 21.9504C7.49054 21.3633 7.15783 20.5672 7.15783 19.737V7.21566C6.87869 7.21568 6.61098 7.32561 6.4136 7.52127C6.21619 7.71694 6.10528 7.98234 6.10528 8.25907V22.8668C6.10528 23.1435 6.21619 23.4089 6.4136 23.6046C6.611 23.8003 6.87875 23.9102 7.15793 23.9102H17.6843C17.9635 23.9102 18.2313 23.8003 18.4287 23.6046C18.626 23.409 18.7369 23.1438 18.737 22.8672ZM12.421 11.3897C11.8397 11.3897 11.3684 11.8569 11.3684 12.4331C11.3684 13.0094 11.8397 13.4765 12.421 13.4765H18.7369C19.3183 13.4765 19.7895 13.0094 19.7895 12.4331C19.7895 11.8569 19.3183 11.3897 18.7369 11.3897H12.421ZM12.421 15.5633C11.8397 15.5633 11.3684 16.0305 11.3684 16.6067C11.3684 17.183 11.8397 17.6502 12.421 17.6502H18.7369C19.3183 17.6502 19.7895 17.183 19.7895 16.6067C19.7895 16.0305 19.3183 15.5633 18.7369 15.5633H12.421Z" fill="#9DA1A3"/>
</svg>
