<svg width="28" height="28" viewBox="0 0 28 28" fill="none" xmlns="http://www.w3.org/2000/svg">
<path fill-rule="evenodd" clip-rule="evenodd" d="M11.2362 2.69268C12.0659 3.28941 12.7444 4.2169 13.115 5.25736C13.3987 6.05418 13.7374 7.07859 13.5734 8.09523C13.3854 9.26056 12.6141 10.1208 11.3998 10.7519C10.7903 11.0687 10.1711 11.2609 9.55148 11.2463C8.9016 11.231 8.35156 10.9902 7.91243 10.6165C7.13336 9.95342 6.72809 8.87375 6.45154 8.09718C6.26612 7.5765 6.2444 7.09306 6.26529 6.64689C6.27618 6.41408 6.30568 6.11619 6.33497 5.82035C6.35291 5.63918 6.37077 5.45879 6.38424 5.29457C6.42988 4.73811 6.51208 4.13077 6.76272 3.58959C7.04368 2.98295 7.49785 2.53493 8.12619 2.24691C9.26335 1.72566 10.4178 2.10404 11.2362 2.69268ZM9.83549 4.6833C9.42733 4.38973 9.19906 4.43744 9.12396 4.47186C9.04485 4.50813 9.01273 4.53639 9.0008 4.54815C8.98994 4.55885 8.97305 4.57803 8.95104 4.62554C8.89349 4.74982 8.83402 4.98786 8.79231 5.49645C8.76892 5.78165 8.74686 5.99662 8.72821 6.17844C8.70549 6.39995 8.68782 6.57224 8.67892 6.76236C8.66603 7.03772 8.688 7.16569 8.72501 7.26962C8.86803 7.67122 8.99837 8.00256 9.13658 8.27082C9.27676 8.54292 9.39111 8.68165 9.46855 8.74756C9.5215 8.79261 9.55142 8.80268 9.60773 8.80401C9.69428 8.80605 9.90752 8.78065 10.2951 8.57923C11.0748 8.17401 11.1627 7.86222 11.1886 7.70202C11.2384 7.39313 11.1455 6.9385 10.8415 6.08492C10.6243 5.47499 10.2324 4.96877 9.83549 4.6833ZM18.5374 4.93388C18.1405 5.21935 17.7486 5.72557 17.5314 6.3355C17.2275 7.18908 17.1345 7.64371 17.1843 7.9526C17.2102 8.1128 17.2982 8.42459 18.0778 8.82981C18.4654 9.03123 18.6786 9.05663 18.7652 9.05459C18.8215 9.05326 18.8514 9.04319 18.9044 8.99813C18.9818 8.93223 19.0962 8.7935 19.2363 8.5214C19.3746 8.25314 19.5049 7.9218 19.6479 7.5202C19.6849 7.41627 19.7069 7.2883 19.694 7.01294C19.6851 6.82282 19.6674 6.65053 19.6447 6.42903C19.6261 6.24721 19.604 6.03223 19.5806 5.74703C19.5389 5.23844 19.4794 5.0004 19.4219 4.87612C19.3999 4.82861 19.383 4.80943 19.3721 4.79873C19.3602 4.78698 19.3281 4.75871 19.249 4.72244C19.1739 4.68802 18.9456 4.64032 18.5374 4.93388ZM17.1367 2.94326C17.9551 2.35462 19.1096 1.97624 20.2467 2.49749C20.8751 2.78551 21.3292 3.23353 21.6102 3.84017C21.8608 4.38135 21.943 4.98869 21.9887 5.54515C22.0022 5.70936 22.02 5.88975 22.038 6.0709C22.0672 6.36676 22.0967 6.66466 22.1076 6.89747C22.1285 7.34364 22.1068 7.82708 21.9214 8.34776C21.6448 9.12433 21.2396 10.204 20.4605 10.8671C20.0214 11.2408 19.4713 11.4816 18.8214 11.4969C18.2018 11.5115 17.5826 11.3193 16.9731 11.0025C15.7588 10.3714 14.9875 9.51114 14.7995 8.34581C14.6355 7.32917 14.9742 6.30476 15.258 5.50794C15.6285 4.46748 16.3071 3.53999 17.1367 2.94326ZM2.90599 11.3272C2.64017 11.2752 2.56044 11.3555 2.53487 11.3845C2.47949 11.4473 2.36981 11.6571 2.43576 12.0911C2.49917 12.5084 2.71464 13.0018 3.09286 13.4309C3.47344 13.8627 3.87314 14.0663 4.1541 14.1213C4.41992 14.1733 4.49965 14.093 4.52522 14.064C4.5806 14.0011 4.69028 13.7913 4.62433 13.3573C4.56092 12.9401 4.34545 12.4466 3.96723 12.0175C3.58665 11.5858 3.18695 11.3821 2.90599 11.3272ZM3.36498 8.92868C4.25535 9.10284 5.10402 9.63529 5.77121 10.3922C6.44077 11.1519 6.8741 12.0747 7.01264 12.9864C7.14865 13.8813 7.01343 14.913 6.3292 15.6893C5.61516 16.4993 4.60061 16.6969 3.69511 16.5198C2.80474 16.3456 1.95607 15.8131 1.28888 15.0562C0.619317 14.2966 0.185987 13.3737 0.0474481 12.4621C-0.0885587 11.5671 0.0466602 10.5355 0.730887 9.75918C1.44493 8.94909 2.45948 8.75156 3.36498 8.92868ZM25.1032 11.9057C24.8226 11.9436 24.4178 12.1214 24.021 12.5268C23.6266 12.9297 23.39 13.4064 23.3078 13.8175C23.2226 14.2438 23.3204 14.464 23.3781 14.5367C23.4089 14.5755 23.4912 14.6586 23.756 14.6229C24.0366 14.585 24.4414 14.4071 24.8381 14.0018C25.2326 13.5989 25.4691 13.1222 25.5513 12.7111C25.6366 12.2848 25.5388 12.0646 25.4811 11.9919C25.4503 11.9531 25.368 11.87 25.1032 11.9057ZM24.7835 9.48425C25.6991 9.36071 26.6967 9.62004 27.3658 10.4631C28.008 11.2723 28.0975 12.3064 27.9198 13.1952C27.739 14.0992 27.2623 14.9983 26.5556 15.7203C25.8512 16.4399 24.9753 16.923 24.0756 17.0444C23.1601 17.1679 22.1625 16.9086 21.4934 16.0655C20.8512 15.2563 20.7617 14.2222 20.9394 13.3334C21.1202 12.4294 21.5969 11.5303 22.3036 10.8083C23.008 10.0887 23.8839 9.60564 24.7835 9.48425ZM9.90163 13.2492C10.8586 12.2856 12.2018 11.7394 13.7596 11.7394C15.3175 11.7394 16.6607 12.2856 17.6177 13.2492C18.4158 14.0529 18.8969 15.0989 19.0319 16.233C20.597 17.1045 21.5964 18.8861 21.5964 20.8393C21.5964 23.5533 19.6281 26 16.9161 26C15.8754 26 15.162 25.5844 14.6883 25.3084L14.683 25.3053C14.1981 25.0229 14.0244 24.937 13.7596 24.937C13.4949 24.937 13.3211 25.0229 12.8363 25.3053L12.831 25.3084C12.3573 25.5844 11.6439 26 10.6032 26C7.89116 26 5.92288 23.5533 5.92288 20.8393C5.92288 18.8861 6.92227 17.1045 8.48735 16.233C8.62236 15.0989 9.10344 14.0529 9.90163 13.2492ZM11.6068 14.9801C11.1435 15.4466 10.8644 16.1119 10.8644 16.9001C10.8644 16.9306 10.8651 16.9611 10.8665 16.9914L10.909 17.929L10.0238 18.212C9.12664 18.4987 8.33922 19.5017 8.33922 20.8393C8.33922 22.4765 9.47999 23.557 10.6032 23.557C10.9592 23.557 11.1911 23.4442 11.6298 23.1887C11.6523 23.1756 11.6755 23.162 11.6994 23.1479C12.132 22.8941 12.8139 22.494 13.7596 22.494C14.7054 22.494 15.3873 22.8941 15.8199 23.1479C15.8438 23.162 15.867 23.1756 15.8894 23.1887C16.3281 23.4442 16.5601 23.557 16.9161 23.557C18.0393 23.557 19.1801 22.4765 19.1801 20.8393C19.1801 19.5017 18.3926 18.4987 17.4955 18.212L16.6103 17.929L16.6528 16.9914C16.6542 16.9611 16.6549 16.9307 16.6549 16.9001C16.6549 16.1119 16.3757 15.4466 15.9125 14.9801C15.4536 14.518 14.7451 14.1824 13.7596 14.1824C12.7742 14.1824 12.0657 14.518 11.6068 14.9801Z" fill="#9DA1A3"/>
</svg>
