<svg width="28" height="28" viewBox="0 0 28 28" fill="none" xmlns="http://www.w3.org/2000/svg">
<path fill-rule="evenodd" clip-rule="evenodd" d="M5.83301 2.33301C3.90001 2.33301 2.33301 3.90001 2.33301 5.83301V19.833C2.33301 23.0547 4.94468 25.6663 8.16634 25.6663H22.1663C24.0993 25.6663 25.6663 24.0993 25.6663 22.1663V17.4997C25.6663 15.5923 24.1406 14.0413 22.243 14.0005C23.5442 12.6292 23.5224 10.4625 22.1777 9.1178L18.8779 5.81797C17.5343 4.47441 15.3702 4.45153 13.9987 5.74931C13.9542 3.85498 12.4047 2.33301 10.4997 2.33301H5.83301ZM22.1663 23.333H12.9122L19.9122 16.333H22.1663C22.8107 16.333 23.333 16.8553 23.333 17.4997V22.1663C23.333 22.8107 22.8107 23.333 22.1663 23.333ZM13.9997 18.9457V9.04624L15.578 7.46788C16.0336 7.01227 16.7723 7.01227 17.2279 7.46788L20.5278 10.7677C20.9834 11.2233 20.9834 11.962 20.5278 12.4176L13.9997 18.9457ZM11.6663 8.56299V5.83301C11.6663 5.18868 11.144 4.66634 10.4997 4.66634H5.83301C5.18868 4.66634 4.66634 5.18868 4.66634 5.83301V19.833C4.66634 21.766 6.23334 23.333 8.16634 23.333C9.17506 23.333 10.0841 22.9063 10.7228 22.2235C10.7354 22.21 10.748 22.1964 10.7604 22.1827C11.3234 21.5616 11.6663 20.7373 11.6663 19.833L11.6663 8.56301L11.6663 8.56299ZM8.16634 20.9997C8.81067 20.9997 9.33301 20.4773 9.33301 19.833C9.33301 19.1887 8.81067 18.6663 8.16634 18.6663C7.52201 18.6663 6.99967 19.1887 6.99967 19.833C6.99967 20.4773 7.52201 20.9997 8.16634 20.9997Z" fill="#9DA1A3"/>
</svg>
