<svg width="28" height="28" viewBox="0 0 28 28" fill="none" xmlns="http://www.w3.org/2000/svg">
<path fill-rule="evenodd" clip-rule="evenodd" d="M17.0929 4.71134C16.134 1.69518 11.8661 1.69518 10.9072 4.71134C10.736 5.25006 10.1209 5.50482 9.61889 5.24499C6.80814 3.79025 3.79024 6.80814 5.24499 9.61889C5.50482 10.1209 5.25006 10.736 4.71134 10.9072C1.69518 11.8661 1.69518 16.134 4.71134 17.0929C5.25006 17.2641 5.50482 17.8792 5.24499 18.3812C3.79024 21.192 6.80813 24.2098 9.61889 22.7551C10.1209 22.4953 10.736 22.75 10.9072 23.2888C11.8661 26.3049 16.134 26.3049 17.0929 23.2888C17.2641 22.75 17.8792 22.4953 18.3812 22.7551C21.192 24.2098 24.2098 21.192 22.7551 18.3812C22.4953 17.8792 22.75 17.2641 23.2888 17.0929C26.3049 16.134 26.3049 11.8661 23.2888 10.9072C22.75 10.736 22.4953 10.1209 22.7551 9.61889C24.2098 6.80813 21.192 3.79025 18.3812 5.24499C17.8792 5.50482 17.2641 5.25006 17.0929 4.71134ZM13.1309 5.41825C13.4004 4.57065 14.5997 4.57065 14.8692 5.41825C15.4786 7.33526 17.6673 8.24183 19.4537 7.31723C20.2436 6.90841 21.0917 7.7565 20.6829 8.54638C19.7583 10.3328 20.6648 12.5215 22.5818 13.1309C23.4294 13.4004 23.4294 14.5997 22.5818 14.8692C20.6648 15.4786 19.7583 17.6673 20.6829 19.4537C21.0917 20.2436 20.2436 21.0917 19.4537 20.6829C17.6673 19.7583 15.4786 20.6648 14.8692 22.5818C14.5997 23.4294 13.4004 23.4294 13.1309 22.5818C12.5215 20.6648 10.3328 19.7583 8.54638 20.6829C7.7565 21.0917 6.90841 20.2436 7.31723 19.4537C8.24183 17.6673 7.33525 15.4786 5.41825 14.8692C4.57065 14.5997 4.57065 13.4004 5.41825 13.1309C7.33526 12.5215 8.24183 10.3328 7.31723 8.54638C6.90842 7.7565 7.7565 6.90841 8.54638 7.31723C10.3328 8.24183 12.5215 7.33525 13.1309 5.41825ZM16.3334 14C16.3334 15.2887 15.2887 16.3334 14 16.3334C12.7114 16.3334 11.6667 15.2887 11.6667 14C11.6667 12.7114 12.7114 11.6667 14 11.6667C15.2887 11.6667 16.3334 12.7114 16.3334 14ZM18.6667 14C18.6667 16.5774 16.5774 18.6667 14 18.6667C11.4227 18.6667 9.33338 16.5774 9.33338 14C9.33338 11.4227 11.4227 9.33338 14 9.33338C16.5774 9.33338 18.6667 11.4227 18.6667 14Z" fill="#9DA1A3"/>
</svg>
