<?xml version="1.0" encoding="UTF-8"?>
<svg width="22px" height="22px" viewBox="0 0 22 22" version="1.1" xmlns="http://www.w3.org/2000/svg" xmlns:xlink="http://www.w3.org/1999/xlink">
    <title>Users</title>
    <g id="Users" stroke="none" stroke-width="1" fill="none" fill-rule="evenodd">
        <g fill="#787878" fill-rule="nonzero">
            <path d="M18.8469636,9.75748988 L16.6647773,9.75748988 C16.388664,9.75748988 16.117004,9.79311741 15.8497976,9.86882591 L15.7206478,9.90445344 L15.6582996,9.78421053 C15.1283401,8.73765182 14.0684211,8.08744939 12.897166,8.08744939 L9.04493927,8.08744939 C7.87368421,8.08744939 6.81821862,8.73765182 6.28380567,9.78421053 L6.22145749,9.90445344 L6.09230769,9.86882591 C5.82510121,9.79757085 5.5534413,9.75748988 5.27732794,9.75748988 L3.0951417,9.75748988 C1.38947368,9.75748988 -1.30266168e-15,11.1469636 -1.30266168e-15,12.8526316 L-1.30266168e-15,19.8712551 C-1.30266168e-15,20.859919 0.801619433,21.6615385 1.7902834,21.6615385 L20.1473684,21.6615385 C21.1360324,21.6615385 21.9376518,20.859919 21.9376518,19.8712551 L21.9376518,12.8526316 C21.9376518,11.1469636 20.5526316,9.75748988 18.8469636,9.75748988 Z M5.95870445,10.9777328 C5.95425101,11.0578947 5.94979757,11.1202429 5.94979757,11.1825911 L5.94979757,20.6951417 L1.79919028,20.6951417 C1.34493927,20.6951417 0.979757085,20.3299595 0.979757085,19.8757085 L0.979757085,12.8526316 C0.979757085,11.6813765 1.93279352,10.7283401 3.10404858,10.7283401 L5.28623482,10.7283401 C5.47327935,10.7283401 5.66032389,10.7550607 5.84291498,10.8040486 L5.97651822,10.8396761 L5.95870445,10.9777328 Z M6.92064777,20.6951417 L6.92064777,11.1781377 C6.92064777,10.0068826 7.87368421,9.05384615 9.04493927,9.05384615 L12.897166,9.05384615 C14.0684211,9.05384615 15.0214575,10.0068826 15.0214575,11.1781377 L15.0214575,20.6951417 L6.92064777,20.6951417 Z M20.1518219,20.6906883 L15.9967611,20.6906883 L15.9967611,11.1781377 C15.9967611,11.1157895 15.9967611,11.0534413 15.9878543,10.9732794 L15.9789474,10.8352227 L16.1125506,10.7995951 C16.2951417,10.7506073 16.4821862,10.7238866 16.6692308,10.7238866 L18.851417,10.7238866 C20.0226721,10.7238866 20.9757085,11.6769231 20.9757085,12.8481781 L20.9757085,19.8712551 C20.9712551,20.3255061 20.6060729,20.6906883 20.1518219,20.6906883 Z" id="Shape"></path>
            <path d="M10.9732794,1.30266168e-15 C8.9291498,1.30266168e-15 7.26801619,1.6611336 7.26801619,3.70526316 C7.26801619,5.74939271 8.9291498,7.41052632 10.9732794,7.41052632 C13.0174089,7.41052632 14.6785425,5.74939271 14.6785425,3.70526316 C14.6785425,1.6611336 13.0174089,1.30266168e-15 10.9732794,1.30266168e-15 Z M10.9732794,6.43967611 C9.46356275,6.43967611 8.2388664,5.21497976 8.2388664,3.70526316 C8.2388664,2.19554656 9.46356275,0.970850202 10.9732794,0.970850202 C12.482996,0.970850202 13.7076923,2.19554656 13.7076923,3.70526316 C13.7076923,5.21052632 12.482996,6.43967611 10.9732794,6.43967611 Z" id="Shape"></path>
            <path d="M17.7558704,3.59838057 C16.2506073,3.59838057 15.0259109,4.82307692 15.0259109,6.32834008 C15.0259109,7.83360324 16.2506073,9.0582996 17.7558704,9.0582996 C19.2611336,9.0582996 20.48583,7.83360324 20.48583,6.32834008 C20.48583,4.82307692 19.2611336,3.59838057 17.7558704,3.59838057 Z M17.7558704,8.09190283 C16.7850202,8.09190283 15.9967611,7.30364372 15.9967611,6.33279352 C15.9967611,5.36194332 16.7850202,4.57368421 17.7558704,4.57368421 C18.7267206,4.57368421 19.5149798,5.36194332 19.5149798,6.33279352 C19.5149798,7.30364372 18.7267206,8.09190283 17.7558704,8.09190283 Z" id="Shape"></path>
            <path d="M3.99919028,3.59838057 C2.49392713,3.59838057 1.26923077,4.82307692 1.26923077,6.32834008 C1.26923077,7.83360324 2.49392713,9.0582996 3.99919028,9.0582996 C5.50445344,9.0582996 6.7291498,7.83360324 6.7291498,6.32834008 C6.7291498,4.82307692 5.50445344,3.59838057 3.99919028,3.59838057 Z M3.99919028,8.09190283 C3.02834008,8.09190283 2.24008097,7.30364372 2.24008097,6.33279352 C2.24008097,5.36194332 3.02834008,4.57368421 3.99919028,4.57368421 C4.97004049,4.57368421 5.7582996,5.36194332 5.7582996,6.33279352 C5.7582996,7.30364372 4.97004049,8.09190283 3.99919028,8.09190283 Z" id="Shape-Copy"></path>
        </g>
    </g>
</svg>