<svg width="28" height="28" viewBox="0 0 28 28" fill="none" xmlns="http://www.w3.org/2000/svg">
<g clip-path="url(#clip0_1864_7314)">
<path fill-rule="evenodd" clip-rule="evenodd" d="M14.0003 4.83333C13.3815 4.83333 12.788 5.07917 12.3504 5.51675C11.9128 5.95434 11.667 6.54783 11.667 7.16667C11.667 7.78551 11.9128 8.379 12.3504 8.81658C12.788 9.25417 13.3815 9.5 14.0003 9.5C14.6192 9.5 15.2127 9.25417 15.6502 8.81658C16.0878 8.379 16.3337 7.78551 16.3337 7.16667C16.3337 6.54783 16.0878 5.95434 15.6502 5.51675C15.2127 5.07917 14.6192 4.83333 14.0003 4.83333ZM10.7005 3.86684C11.5757 2.99167 12.7626 2.5 14.0003 2.5C15.238 2.5 16.425 2.99167 17.3002 3.86684C18.1753 4.74201 18.667 5.92899 18.667 7.16667C18.667 8.40434 18.1753 9.59133 17.3002 10.4665C16.425 11.3417 15.238 11.8333 14.0003 11.8333C12.7627 11.8333 11.5757 11.3417 10.7005 10.4665C9.82532 9.59133 9.33366 8.40434 9.33366 7.16667C9.33366 5.92899 9.82532 4.74201 10.7005 3.86684ZM5.83366 9.5C5.52424 9.5 5.22749 9.62292 5.0087 9.84171C4.78991 10.0605 4.66699 10.3572 4.66699 10.6667C4.66699 10.9761 4.78991 11.2728 5.0087 11.4916C5.22749 11.7104 5.52424 11.8333 5.83366 11.8333C6.14308 11.8333 6.43982 11.7104 6.65862 11.4916C6.87741 11.2728 7.00033 10.9761 7.00033 10.6667C7.00033 10.3572 6.87741 10.0605 6.65862 9.84171C6.43982 9.62292 6.14308 9.5 5.83366 9.5ZM3.35879 8.19179C4.01516 7.53542 4.9054 7.16667 5.83366 7.16667C6.76192 7.16667 7.65216 7.53542 8.30853 8.19179C8.96491 8.84817 9.33366 9.73841 9.33366 10.6667C9.33366 11.5949 8.96491 12.4852 8.30853 13.1415C7.65216 13.7979 6.76192 14.1667 5.83366 14.1667C4.9054 14.1667 4.01516 13.7979 3.35879 13.1415C2.70241 12.4852 2.33366 11.5949 2.33366 10.6667C2.33366 9.73841 2.70241 8.84817 3.35879 8.19179ZM22.167 9.5C21.8576 9.5 21.5608 9.62292 21.342 9.84171C21.1232 10.0605 21.0003 10.3572 21.0003 10.6667C21.0003 10.9761 21.1232 11.2728 21.342 11.4916C21.5608 11.7104 21.8576 11.8333 22.167 11.8333C22.4764 11.8333 22.7732 11.7104 22.992 11.4916C23.2107 11.2728 23.3337 10.9761 23.3337 10.6667C23.3337 10.3572 23.2107 10.0605 22.992 9.84171C22.7732 9.62292 22.4764 9.5 22.167 9.5ZM19.6921 8.19179C20.3485 7.53542 21.2387 7.16667 22.167 7.16667C23.0953 7.16667 23.9855 7.53542 24.6419 8.19179C25.2982 8.84817 25.667 9.73841 25.667 10.6667C25.667 11.5949 25.2982 12.4852 24.6419 13.1415C23.9855 13.7979 23.0953 14.1667 22.167 14.1667C21.2387 14.1667 20.3485 13.7979 19.6921 13.1415C19.0357 12.4852 18.667 11.5949 18.667 10.6667C18.667 9.73841 19.0357 8.84817 19.6921 8.19179ZM14.0003 15.3325C13.0673 15.3325 12.1557 15.6121 11.383 16.1351C10.6103 16.6581 10.0121 17.4007 9.66549 18.2669C9.4518 18.8002 9.33366 19.3851 9.33366 20V21.1667H18.667V20C18.667 19.3851 18.5491 18.8007 18.3354 18.2674C17.9887 17.4012 17.3903 16.6581 16.6177 16.1351C15.845 15.6121 14.9334 15.3325 14.0003 15.3325ZM21.0003 21.1667H24.5003V20.0001C24.5003 20.0001 24.5003 20.0001 24.5003 20.0001C24.5003 19.5152 24.3492 19.0423 24.068 18.6472C23.7868 18.2522 23.3895 17.9545 22.9314 17.7957C22.4732 17.6368 21.9769 17.6247 21.5115 17.7609C21.2353 17.8417 20.9781 17.9725 20.7519 18.145C20.9142 18.7371 21.0003 19.3595 21.0003 20V21.1667ZM19.7517 16.0072C19.262 15.3021 18.6441 14.6892 17.9257 14.2029C16.7669 13.4184 15.3996 12.9992 14.0003 12.9992C12.601 12.9992 11.2338 13.4184 10.075 14.2029C9.35656 14.6892 8.73868 15.3021 8.24894 16.0072C7.90537 15.7994 7.53445 15.6356 7.14459 15.5215C6.2138 15.2491 5.22126 15.2734 4.30494 15.5911C3.38861 15.9088 2.59404 16.5041 2.03167 17.2942C1.46929 18.0844 1.16706 19.0301 1.16699 19.9999V22.3333C1.16699 22.9777 1.68933 23.5 2.33366 23.5H25.667C26.3113 23.5 26.8337 22.9777 26.8337 22.3333V20C26.8336 19.0302 26.5314 18.0844 25.969 17.2942C25.4066 16.5041 24.612 15.9088 23.6957 15.5911C22.7794 15.2734 21.7869 15.2491 20.8561 15.5215C20.4662 15.6356 20.0953 15.7994 19.7517 16.0072ZM7.24876 18.145C7.02254 17.9725 6.76535 17.8417 6.48912 17.7609C6.02373 17.6247 5.52746 17.6368 5.0693 17.7957C4.61114 17.9545 4.21385 18.2522 3.93266 18.6472C3.65149 19.0423 3.50038 19.5151 3.50033 20C3.50033 20 3.50033 20 3.50033 20V21.1667H7.00033V20C7.00033 19.3595 7.08646 18.7371 7.24876 18.145Z" fill="#9DA1A3"/>
</g>
<defs>
<clipPath id="clip0_1864_7314">
<rect width="28" height="28" fill="white"/>
</clipPath>
</defs>
</svg>
