<svg width="20" height="20" viewBox="0 0 20 20" fill="none" xmlns="http://www.w3.org/2000/svg">
<g clip-path="url(#clip0_3_2793)">
<path fill-rule="evenodd" clip-rule="evenodd" d="M9.99998 2.50004C5.85784 2.50004 2.49998 5.85791 2.49998 10C2.49998 14.1422 5.85784 17.5 9.99998 17.5C14.1421 17.5 17.5 14.1422 17.5 10C17.5 5.85791 14.1421 2.50004 9.99998 2.50004ZM0.833313 10C0.833313 4.93743 4.93737 0.833374 9.99998 0.833374C15.0626 0.833374 19.1666 4.93743 19.1666 10C19.1666 15.0627 15.0626 19.1667 9.99998 19.1667C4.93737 19.1667 0.833313 15.0627 0.833313 10Z" fill="#F92A5E"/>
<path fill-rule="evenodd" clip-rule="evenodd" d="M10 5.83337C10.4603 5.83337 10.8334 6.20647 10.8334 6.66671V10C10.8334 10.4603 10.4603 10.8334 10 10.8334C9.53978 10.8334 9.16669 10.4603 9.16669 10V6.66671C9.16669 6.20647 9.53978 5.83337 10 5.83337Z" fill="#F92A5E"/>
<path fill-rule="evenodd" clip-rule="evenodd" d="M9.16669 13.3333C9.16669 12.8731 9.53978 12.5 10 12.5H10.0084C10.4686 12.5 10.8417 12.8731 10.8417 13.3333C10.8417 13.7936 10.4686 14.1667 10.0084 14.1667H10C9.53978 14.1667 9.16669 13.7936 9.16669 13.3333Z" fill="#F92A5E"/>
</g>
<defs>
<clipPath id="clip0_3_2793">
<rect width="20" height="20" fill="white"/>
</clipPath>
</defs>
</svg>
