<svg width="20" height="20" viewBox="0 0 20 20" fill="none" xmlns="http://www.w3.org/2000/svg">
<circle cx="3.33333" cy="3.33333" r="3.33333" transform="matrix(-1 0 0 1 11.6666 2.5)" fill="white" stroke="white" stroke-width="1.25"/>
<path d="M2.5 14.1122C2.5 13.3953 2.95071 12.7557 3.62591 12.5146V12.5146C6.67003 11.4274 9.99663 11.4274 13.0408 12.5146V12.5146C13.716 12.7557 14.1667 13.3953 14.1667 14.1122V15.2085C14.1667 16.198 13.2902 16.9581 12.3107 16.8182L11.5153 16.7046C9.4047 16.403 7.26196 16.403 5.15135 16.7046L4.356 16.8182C3.37642 16.9581 2.5 16.198 2.5 15.2085V14.1122Z" fill="white" stroke="white" stroke-width="1.25"/>
<path d="M14.1667 9.16666H17.5" stroke="white" stroke-width="1.25" stroke-linecap="round" stroke-linejoin="round"/>
<path d="M15.8334 7.5L15.8334 10.8333" stroke="white" stroke-width="1.25" stroke-linecap="round" stroke-linejoin="round"/>
</svg>
