<svg width="17" height="18" viewBox="0 0 17 18" fill="none" xmlns="http://www.w3.org/2000/svg">
<path fill-rule="evenodd" clip-rule="evenodd" d="M5.58977 1.49426C5.97566 1.49426 6.28849 1.80709 6.28849 2.19298V2.8917H10.4808V2.19298C10.4808 1.80709 10.7936 1.49426 11.1795 1.49426C11.5654 1.49426 11.8782 1.80709 11.8782 2.19298V2.8917H13.2757C14.4333 2.8917 15.3718 3.83018 15.3718 4.98785V14.7699C15.3718 15.9276 14.4333 16.8661 13.2757 16.8661H3.49361C2.33594 16.8661 1.39746 15.9276 1.39746 14.7699V4.98785C1.39746 3.83018 2.33594 2.8917 3.49361 2.8917H4.89105V2.19298C4.89105 1.80709 5.20388 1.49426 5.58977 1.49426ZM4.89105 4.28913H3.49361C3.10772 4.28913 2.7949 4.60196 2.7949 4.98785V7.08401H13.9744V4.98785C13.9744 4.60196 13.6616 4.28913 13.2757 4.28913H11.8782V4.98785C11.8782 5.37374 11.5654 5.68657 11.1795 5.68657C10.7936 5.68657 10.4808 5.37374 10.4808 4.98785V4.28913H6.28849V4.98785C6.28849 5.37374 5.97566 5.68657 5.58977 5.68657C5.20388 5.68657 4.89105 5.37374 4.89105 4.98785V4.28913ZM13.9744 8.48144H2.7949V14.7699C2.7949 15.1558 3.10772 15.4686 3.49361 15.4686H13.2757C13.6616 15.4686 13.9744 15.1558 13.9744 14.7699V8.48144Z" fill="#34435E"/>
</svg>
