<svg width="20" height="20" viewBox="0 0 20 20" fill="none" xmlns="http://www.w3.org/2000/svg">
<g clip-path="url(#clip0_3_2804)">
<path fill-rule="evenodd" clip-rule="evenodd" d="M13.0525 3.14457C11.5752 2.48633 9.92468 2.32326 8.34712 2.67968C6.76957 3.03611 5.3495 3.89294 4.29869 5.12238C3.24789 6.35182 2.62265 7.888 2.51624 9.50181C2.40982 11.1156 2.82793 12.7206 3.7082 14.0774C4.58847 15.4341 5.88374 16.47 7.40083 17.0305C8.91793 17.591 10.5756 17.6461 12.1265 17.1875C13.6774 16.7289 15.0386 15.7813 16.007 14.4859C16.9754 13.1906 17.4991 11.6169 17.5 9.99957V9.23338C17.5 8.77315 17.8731 8.40005 18.3333 8.40005C18.7936 8.40005 19.1667 8.77315 19.1667 9.23338V10.0001C19.1655 11.9768 18.5254 13.9006 17.3419 15.4839C16.1583 17.0671 14.4947 18.2253 12.5991 18.7858C10.7035 19.3462 8.67747 19.2789 6.82324 18.5939C4.96902 17.9089 3.38591 16.6428 2.31003 14.9845C1.23414 13.3262 0.723122 11.3646 0.853183 9.39215C0.983245 7.41971 1.74742 5.54216 3.03174 4.03951C4.31605 2.53686 6.0517 1.48963 7.97982 1.05399C9.90794 0.618361 11.9252 0.817669 13.7308 1.62219C14.1512 1.80951 14.3402 2.30216 14.1528 2.72255C13.9655 3.14294 13.4729 3.33189 13.0525 3.14457Z" fill="#00D19D"/>
<path fill-rule="evenodd" clip-rule="evenodd" d="M18.9223 2.74378C19.2479 3.06906 19.2482 3.59669 18.9229 3.92229L10.5896 12.264C10.4333 12.4204 10.2213 12.5083 10.0002 12.5083C9.77914 12.5084 9.5671 12.4206 9.41076 12.2643L6.91076 9.76426C6.58533 9.43882 6.58533 8.91118 6.91076 8.58574C7.2362 8.26031 7.76384 8.26031 8.08928 8.58574L9.99973 10.4962L17.7438 2.74437C18.0691 2.41877 18.5967 2.41851 18.9223 2.74378Z" fill="#00D19D"/>
</g>
<defs>
<clipPath id="clip0_3_2804">
<rect width="20" height="20" fill="white"/>
</clipPath>
</defs>
</svg>
