<svg width="20" height="20" viewBox="0 0 20 20" fill="none" xmlns="http://www.w3.org/2000/svg">
<path fill-rule="evenodd" clip-rule="evenodd" d="M16.9224 15.7662C16.9678 15.7722 17.0132 15.7784 17.0585 15.7847L17.2864 15.8167C18.2788 15.956 19.1666 15.1996 19.1666 14.2149V13.4635C19.1666 12.7593 18.716 12.1311 18.0408 11.8942C17.2608 11.6206 16.4554 11.4424 15.6425 11.3597C16.4908 11.973 17.0169 12.966 17.0169 14.0495V14.9825C17.0169 15.2534 16.9841 15.5158 16.9224 15.7662ZM13.4843 10.36C13.8223 10.4995 14.1936 10.5767 14.5833 10.5767C16.1511 10.5767 17.422 9.32828 17.422 7.78831C17.422 6.24834 16.1511 4.99995 14.5833 4.99995C14.5369 4.99995 14.4907 5.00104 14.4448 5.00321C14.7299 5.61038 14.8892 6.28833 14.8892 7.00349C14.8892 8.31725 14.3515 9.50542 13.4843 10.36Z" fill="white"/>
<path fill-rule="evenodd" clip-rule="evenodd" d="M3.39493 15.7662C3.34956 15.7722 3.3042 15.7784 3.25886 15.7847L3.03094 15.8167C2.03858 15.956 1.15074 15.1996 1.15074 14.2149V13.4635C1.15074 12.7593 1.60142 12.1311 2.27658 11.8942C3.05663 11.6206 3.86193 11.4424 4.67487 11.3597C3.82663 11.973 3.30052 12.966 3.30052 14.0495V14.9825C3.30052 15.2534 3.33331 15.5158 3.39493 15.7662ZM6.83313 10.36C6.49509 10.4995 6.12375 10.5767 5.73407 10.5767C4.16631 10.5767 2.89539 9.32828 2.89539 7.78831C2.89539 6.24834 4.16631 4.99995 5.73407 4.99995C5.78052 4.99995 5.8267 5.00104 5.8726 5.00321C5.58751 5.61038 5.42818 6.28833 5.42818 7.00349C5.42818 8.31725 5.96584 9.50542 6.83313 10.36Z" fill="white"/>
<path fill-rule="evenodd" clip-rule="evenodd" d="M13.6392 7.0035C13.6392 5.09155 12.0892 3.54162 10.1773 3.54162C8.26536 3.54162 6.71542 5.09155 6.71542 7.0035C6.71542 8.91544 8.26536 10.4654 10.1773 10.4654C12.0892 10.4654 13.6392 8.91544 13.6392 7.0035Z" fill="white"/>
<path fill-rule="evenodd" clip-rule="evenodd" d="M5.96078 12.1012C8.68746 11.1274 11.6672 11.1274 14.3938 12.1012C15.2172 12.3952 15.7668 13.1752 15.7668 14.0495V14.9825C15.7668 16.205 14.6841 17.144 13.4739 16.9711L13.1959 16.9314C11.1937 16.6454 9.16094 16.6454 7.1587 16.9314L6.88074 16.9711C5.67053 17.144 4.58777 16.205 4.58777 14.9825V14.0495C4.58777 13.1752 5.1374 12.3952 5.96078 12.1012Z" fill="white"/>
</svg>
