<svg width="10" height="20" viewBox="0 0 10 20" fill="none" xmlns="http://www.w3.org/2000/svg">
<path d="M8.61874 1.2771C8.73206 1.2771 8.87372 1.33376 8.95871 1.41875C9.15702 1.61706 9.15702 1.9287 8.98704 2.12701L1.84776 9.71958C1.7061 9.86123 1.7061 10.1162 1.84776 10.2862L8.98704 17.8788C9.18535 18.0771 9.15702 18.3887 8.95871 18.587C8.7604 18.7853 8.44876 18.757 8.25045 18.5587L1.11116 10.9661C0.629546 10.4278 0.629546 9.57793 1.11116 9.06798L8.25044 1.44708C8.36377 1.33376 8.47709 1.2771 8.61874 1.2771Z" fill="#fff"/>
<path fill-rule="evenodd" clip-rule="evenodd" d="M9.34216 2.44587L2.23632 10.0029L9.33038 17.5474C9.74244 17.9662 9.64282 18.5777 9.2961 18.9244C8.87714 19.3434 8.26143 19.2445 7.91305 18.8961L7.90786 18.8909L0.755465 11.2844C0.116535 10.5703 0.104454 9.4398 0.763565 8.7411C0.763801 8.74086 0.764035 8.74061 0.764271 8.74036L7.90755 1.11519L7.91305 1.10969C8.0916 0.931135 8.31994 0.799952 8.61874 0.799952C8.85716 0.799952 9.12061 0.905867 9.2961 1.08136C9.67718 1.46244 9.67553 2.05695 9.34931 2.43753L9.34216 2.44587ZM1.11116 9.06798C0.629546 9.57793 0.629546 10.4278 1.11116 10.9661L8.25045 18.5587C8.44876 18.757 8.7604 18.7853 8.95871 18.587C9.15702 18.3887 9.18535 18.0771 8.98704 17.8788L1.84776 10.2862C1.7061 10.1162 1.7061 9.86123 1.84776 9.71958L8.98704 2.12701C9.15702 1.9287 9.15702 1.61706 8.95871 1.41875C8.87372 1.33376 8.73206 1.2771 8.61874 1.2771C8.47709 1.2771 8.36377 1.33376 8.25044 1.44708L1.11116 9.06798Z" fill="#fff"/>
</svg>
