<svg width="10" height="20" viewBox="0 0 10 20" fill="none" xmlns="http://www.w3.org/2000/svg">
<path d="M1.38114 18.7229C1.26781 18.7229 1.12616 18.6662 1.04117 18.5812C0.842856 18.3829 0.842857 18.0713 1.01284 17.873L8.15212 10.2804C8.29377 10.1388 8.29377 9.8838 8.15212 9.71381L1.01284 2.12125C0.814526 1.92293 0.842856 1.6113 1.04117 1.41299C1.23948 1.21467 1.55112 1.243 1.74943 1.44132L8.88871 9.03388C9.37033 9.57216 9.37033 10.4221 8.88871 10.932L1.74943 18.5529C1.63611 18.6662 1.52279 18.7229 1.38114 18.7229Z" fill="#212B36"/>
<path fill-rule="evenodd" clip-rule="evenodd" d="M0.657712 17.5541L7.76356 9.99712L0.669495 2.45264C0.257438 2.03382 0.357058 1.42232 0.70378 1.0756C1.12274 0.656636 1.73845 0.755545 2.08683 1.10393L2.09202 1.10912L9.24441 8.71563C9.88334 9.42973 9.89542 10.5602 9.23631 11.2589C9.23608 11.2591 9.23584 11.2594 9.23561 11.2596L2.09233 18.8848L2.08683 18.8903C1.90827 19.0689 1.67994 19.2 1.38114 19.2C1.14271 19.2 0.879269 19.0941 0.70378 18.9186C0.322695 18.5376 0.324349 17.9431 0.650567 17.5625L0.657712 17.5541ZM8.88871 10.932C9.37033 10.4221 9.37033 9.57216 8.88871 9.03388L1.74943 1.44132C1.55112 1.243 1.23948 1.21467 1.04117 1.41299C0.842856 1.6113 0.814526 1.92293 1.01284 2.12125L8.15212 9.71381C8.29377 9.8838 8.29377 10.1388 8.15212 10.2804L1.01284 17.873C0.842857 18.0713 0.842856 18.3829 1.04117 18.5812C1.12616 18.6662 1.26781 18.7229 1.38114 18.7229C1.52279 18.7229 1.63611 18.6662 1.74943 18.5529L8.88871 10.932Z" fill="#212B36"/>
</svg>
