<svg width="17" height="18" viewBox="0 0 17 18" fill="none" xmlns="http://www.w3.org/2000/svg">
<g clip-path="url(#clip0_2_4063)">
<path fill-rule="evenodd" clip-rule="evenodd" d="M0.763638 2.59764C0.878129 2.35087 1.12543 2.19299 1.39746 2.19299H15.3718C15.6438 2.19299 15.8911 2.35087 16.0056 2.59764C16.1201 2.8444 16.081 3.13518 15.9053 3.34289L10.4808 9.75742V15.4686C10.4808 15.7108 10.3554 15.9357 10.1494 16.063C9.94342 16.1903 9.68619 16.2019 9.4696 16.0936L6.67473 14.6962C6.43801 14.5778 6.28848 14.3359 6.28848 14.0712V9.75742L0.863938 3.34289C0.688282 3.13518 0.649148 2.8444 0.763638 2.59764ZM2.90341 3.59043L7.52072 9.0504C7.62739 9.17654 7.68592 9.33639 7.68592 9.50158V13.6394L9.08335 14.3381V9.50158C9.08335 9.33639 9.14188 9.17654 9.24855 9.0504L13.8659 3.59043H2.90341Z" fill="#34435E"/>
</g>
<defs>
<clipPath id="clip0_2_4063">
<rect width="16.7692" height="16.7692" fill="white" transform="translate(0 0.795532)"/>
</clipPath>
</defs>
</svg>
