<svg width="20" height="20" viewBox="0 0 20 20" fill="none" xmlns="http://www.w3.org/2000/svg">
<path fill-rule="evenodd" clip-rule="evenodd" d="M9.00004 1.66666H16.8334C17.6618 1.66666 18.3334 2.33824 18.3334 3.16666V16.8333C18.3334 17.6618 17.6618 18.3333 16.8334 18.3333H9.00004C8.17161 18.3333 7.50004 17.6618 7.50004 16.8333V13.3333V10.625L12.6578 10.625L11.2248 12.0581C10.9807 12.3021 10.9807 12.6979 11.2248 12.9419C11.4688 13.186 11.8646 13.186 12.1087 12.9419L14.0194 11.0312C14.5889 10.4617 14.5889 9.53831 14.0194 8.9688L12.1087 7.05805C11.8646 6.81398 11.4688 6.81398 11.2248 7.05805C10.9807 7.30213 10.9807 7.69786 11.2248 7.94194L12.6578 9.375L7.50004 9.375V6.66666V3.16666C7.50004 2.33824 8.17161 1.66666 9.00004 1.66666ZM7.50004 9.375L3.33337 9.375C2.9882 9.375 2.70837 9.65482 2.70837 10C2.70837 10.3452 2.9882 10.625 3.33337 10.625H7.50004V9.375Z" fill="white"/>
</svg>
