<svg width="20" height="20" viewBox="0 0 20 20" fill="none" xmlns="http://www.w3.org/2000/svg">
<path fill-rule="evenodd" clip-rule="evenodd" d="M4 1.66666H11.8333C12.6618 1.66666 13.3333 2.33824 13.3333 3.16666V9.375L7.5 9.375C7.15482 9.375 6.875 9.65482 6.875 10C6.875 10.3452 7.15482 10.625 7.5 10.625L13.3333 10.625V16.8333C13.3333 17.6618 12.6618 18.3333 11.8333 18.3333H4C3.17157 18.3333 2.5 17.6618 2.5 16.8333V13.3333V6.66666V3.16666C2.5 2.33824 3.17157 1.66666 4 1.66666ZM13.3333 10.625H16.8245L15.3914 12.0581C15.1473 12.3021 15.1473 12.6979 15.3914 12.9419C15.6355 13.186 16.0312 13.186 16.2753 12.9419L18.186 11.0312C18.7555 10.4617 18.7555 9.53831 18.186 8.9688L16.2753 7.05805C16.0312 6.81398 15.6355 6.81398 15.3914 7.05805C15.1473 7.30213 15.1473 7.69786 15.3914 7.94194L16.8245 9.375L13.3333 9.375V10.625Z" fill="white"/>
</svg>
