<svg width="20" height="20" viewBox="0 0 20 20" fill="none" xmlns="http://www.w3.org/2000/svg">
<path d="M5.5 14L4 5H17.2534C17.8931 5 18.3683 5.59242 18.2296 6.21693L16.848 12.4339C16.6447 13.3489 15.8331 14 14.8957 14H5.5Z" fill="white"/>
<path d="M5.41674 14.1667H14.4411C15.2327 14.1667 15.6285 14.1667 15.9511 14.0237C16.2355 13.8976 16.479 13.6944 16.6539 13.4371C16.8523 13.1453 16.9231 12.7559 17.0647 11.977L18.1904 5.78592C18.2395 5.51598 18.264 5.381 18.2261 5.27561C18.1928 5.18315 18.128 5.10542 18.0429 5.05615C17.946 5 17.8089 5 17.5345 5H4.16674M1.66663 1.66666H2.76363C2.96587 1.66666 3.06699 1.66666 3.14877 1.7036C3.22085 1.73616 3.28218 1.78857 3.32558 1.85469C3.37483 1.92971 3.3906 2.02959 3.42214 2.22936L5.74445 16.9373C5.77599 17.1371 5.79176 17.237 5.841 17.312C5.8844 17.3781 5.94573 17.4305 6.01781 17.4631C6.09959 17.5 6.20071 17.5 6.40296 17.5H15.8333M5.41675 14.1667H14.4411C15.2327 14.1667 15.6285 14.1667 15.9511 14.0237C16.2355 13.8976 16.479 13.6944 16.6539 13.4371C16.8523 13.1453 16.9231 12.7559 17.0647 11.977L18.1904 5.78592L18.1904 5.7859C18.2395 5.51597 18.264 5.381 18.2261 5.27562C18.1928 5.18315 18.128 5.10542 18.043 5.05616C17.946 5 17.8089 5 17.5345 5H4.16675M5.41675 14.1667H14.4411C15.2327 14.1667 15.6285 14.1667 15.9511 14.0237C16.2355 13.8976 16.479 13.6944 16.6539 13.4371C16.8523 13.1453 16.9231 12.7559 17.0647 11.977L18.1904 5.78592C18.2395 5.51599 18.264 5.381 18.2261 5.27562C18.1928 5.18315 18.128 5.10542 18.043 5.05616C17.946 5 17.8089 5 17.5345 5H4.16675" stroke="white" stroke-width="1.25" stroke-linecap="round" stroke-linejoin="round"/>
</svg>
