<svg width="20" height="20" viewBox="0 0 20 20" fill="none" xmlns="http://www.w3.org/2000/svg">
<path fill-rule="evenodd" clip-rule="evenodd" d="M3.76201 5.13225C3.49745 5.27922 3.33337 5.55807 3.33337 5.86071V9.72627C3.33337 12.7527 4.97414 15.5412 7.61969 17.0109L9.59534 18.1085C9.84702 18.2483 10.1531 18.2483 10.4047 18.1085L12.3804 17.0109C15.0259 15.5412 16.6667 12.7527 16.6667 9.72627V5.86071C16.6667 5.55807 16.5026 5.27922 16.2381 5.13225L10.4047 1.89151C10.1531 1.75168 9.84702 1.75168 9.59534 1.89151L3.76201 5.13225ZM9.14143 12.1086C9.38551 12.3527 9.78124 12.3527 10.0253 12.1086L13.3587 8.77528C13.6027 8.5312 13.6027 8.13547 13.3587 7.8914C13.1146 7.64732 12.7188 7.64732 12.4748 7.8914L9.58337 10.7828L8.35865 9.55806C8.11457 9.31398 7.71884 9.31398 7.47477 9.55806C7.23069 9.80214 7.23069 10.1979 7.47477 10.4419L9.14143 12.1086Z" fill="white"/>
</svg>
