<svg width="20" height="20" viewBox="0 0 20 20" fill="none" xmlns="http://www.w3.org/2000/svg">
<path d="M15.5698 16.1987C14.0938 17.5258 12.1412 18.3333 10.0001 18.3333C7.85888 18.3333 5.90631 17.5258 4.4303 16.1987C4.93724 15.0043 6.12082 14.1667 7.50005 14.1667H12.5001C13.8793 14.1667 15.0629 15.0043 15.5698 16.1987Z" fill="white"/>
<path d="M9.99996 11.25C11.8409 11.25 13.3333 9.75762 13.3333 7.91667C13.3333 6.07572 11.8409 4.58334 9.99996 4.58334C8.15901 4.58334 6.66663 6.07572 6.66663 7.91667C6.66663 9.75762 8.15901 11.25 9.99996 11.25Z" fill="white"/>
<path d="M4.43021 16.1987C4.93714 15.0043 6.12073 14.1667 7.49996 14.1667H12.5C13.8792 14.1667 15.0628 15.0043 15.5697 16.1987M18.3333 10C18.3333 14.6024 14.6023 18.3333 9.99996 18.3333C5.39759 18.3333 1.66663 14.6024 1.66663 10C1.66663 5.39762 5.39759 1.66666 9.99996 1.66666C14.6023 1.66666 18.3333 5.39762 18.3333 10Z" stroke="white" stroke-width="1.25" stroke-linecap="round" stroke-linejoin="round"/>
</svg>
