<svg width="24" height="24" viewBox="0 0 24 24" fill="none" xmlns="http://www.w3.org/2000/svg">
<path fill-rule="evenodd" clip-rule="evenodd" d="M20.7071 10.2929C21.0976 10.6834 21.0976 11.3166 20.7071 11.7071L11.7071 20.7071C11.3166 21.0977 10.6834 21.0977 10.2929 20.7071C9.90237 20.3166 9.90237 19.6834 10.2929 19.2929L19.2929 10.2929C19.6834 9.9024 20.3166 9.9024 20.7071 10.2929Z" fill="#ABB8CA"/>
<path fill-rule="evenodd" clip-rule="evenodd" d="M20.7071 4.29292C21.0976 4.68345 21.0976 5.31661 20.7071 5.70714L5.70711 20.7071C5.31658 21.0977 4.68342 21.0977 4.29289 20.7071C3.90237 20.3166 3.90237 19.6834 4.29289 19.2929L19.2929 4.29292C19.6834 3.9024 20.3166 3.9024 20.7071 4.29292Z" fill="#ABB8CA"/>
<path fill-rule="evenodd" clip-rule="evenodd" d="M20.7071 16.2929C21.0976 16.6834 21.0976 17.3166 20.7071 17.7071L17.7071 20.7071C17.3166 21.0977 16.6834 21.0977 16.2929 20.7071C15.9024 20.3166 15.9024 19.6834 16.2929 19.2929L19.2929 16.2929C19.6834 15.9024 20.3166 15.9024 20.7071 16.2929Z" fill="#ABB8CA"/>
</svg>
