<svg width="14" height="8" viewBox="0 0 14 8" fill="none" xmlns="http://www.w3.org/2000/svg">
<path d="M13.341 6.37901C13.341 6.46139 13.2998 6.56436 13.238 6.62614C13.0939 6.7703 12.8673 6.7703 12.7232 6.64674L7.20397 1.45704C7.101 1.35407 6.91566 1.35407 6.79209 1.45704L1.27289 6.64674C1.12874 6.79089 0.902201 6.7703 0.758043 6.62614C0.613885 6.48198 0.634479 6.25545 0.778637 6.11129L6.29784 0.921594C6.68912 0.571495 7.30694 0.571495 7.67764 0.921594L13.2174 6.11129C13.2998 6.19367 13.341 6.27604 13.341 6.37901Z" fill="#637381"/>
<path fill-rule="evenodd" clip-rule="evenodd" d="M12.2828 7.13723L6.99803 2.16799L1.73009 7.12142C1.28158 7.56009 0.64119 7.44128 0.292052 7.09214C-0.156852 6.64323 -0.0387778 5.99673 0.312646 5.64531L0.326984 5.63097L5.85828 0.43033C6.4924 -0.137041 7.49771 -0.153718 8.12907 0.4415C8.12942 0.441831 8.12872 0.441168 8.12907 0.4415L13.6837 5.64506C13.8561 5.81753 14 6.059 14 6.37902C14 6.63418 13.8908 6.90537 13.704 7.09214C13.3074 7.48873 12.6902 7.48645 12.2943 7.1471L12.2828 7.13723ZM7.67764 0.921594C7.30694 0.571495 6.68912 0.571495 6.29784 0.921594L0.778637 6.11129C0.634479 6.25545 0.613885 6.48198 0.758043 6.62614C0.902201 6.7703 1.12874 6.79089 1.27289 6.64674L6.79209 1.45704C6.91566 1.35407 7.101 1.35407 7.20397 1.45704L12.7232 6.64674C12.8673 6.7703 13.0939 6.7703 13.238 6.62614C13.2998 6.56436 13.341 6.46139 13.341 6.37901C13.341 6.27604 13.2998 6.19367 13.2174 6.11129L7.67764 0.921594Z" fill="#637381"/>
</svg>
