<svg width="20" height="20" viewBox="0 0 20 20" fill="none" xmlns="http://www.w3.org/2000/svg">
<path fill-rule="evenodd" clip-rule="evenodd" d="M11.4994 13.9253C11.4824 13.9832 11.4743 14.0438 11.458 14.165L11.2333 15.8394L11.2333 15.8394C11.1958 16.119 11.177 16.2588 11.225 16.3456C11.2668 16.4212 11.3391 16.4751 11.4235 16.4936C11.5204 16.5147 11.649 16.4568 11.9062 16.3409L13.4466 15.6471C13.5581 15.5969 13.6139 15.5718 13.6645 15.539C13.7094 15.5098 13.7513 15.4762 13.7895 15.4386C13.8271 15.4014 13.8599 15.3591 13.9167 15.2832V15.7335C13.9167 17.1033 12.7034 18.1556 11.3473 17.9619L10.5519 17.8483C8.49995 17.5551 6.41672 17.5551 4.36474 17.8483L3.56939 17.9619C2.21329 18.1556 1 17.1033 1 15.7335V14.6372C1 13.6561 1.61676 12.7809 2.5407 12.451C5.72076 11.3152 9.19591 11.3152 12.376 12.451C12.4181 12.466 12.4597 12.4822 12.5005 12.4995L11.6978 13.5765C11.6248 13.6745 11.5882 13.7235 11.5599 13.7768C11.5348 13.8241 11.5145 13.8739 11.4994 13.9253ZM12.5005 12.4995L16.0179 7.78032C16.4798 7.16061 17.3566 7.03266 17.9763 7.49454C18.5961 7.95644 18.724 8.83329 18.2621 9.45302L13.942 15.2491L13.942 15.2492C13.933 15.2612 13.9246 15.2725 13.9167 15.2832V14.6372C13.9167 13.7009 13.3549 12.8611 12.5005 12.4995Z" fill="white"/>
<path fill-rule="evenodd" clip-rule="evenodd" d="M7.45833 2.39999C9.64446 2.39999 11.4167 4.1722 11.4167 6.35833C11.4167 8.54445 9.64446 10.3167 7.45833 10.3167C5.27221 10.3167 3.5 8.54445 3.5 6.35833C3.5 4.1722 5.27221 2.39999 7.45833 2.39999Z" fill="white"/>
</svg>
