<svg width="20" height="20" viewBox="0 0 20 20" fill="none" xmlns="http://www.w3.org/2000/svg">
<path fill-rule="evenodd" clip-rule="evenodd" d="M11.875 1.04695C11.8234 1.04344 11.7715 1.04166 11.7194 1.04166H6.66671C4.48058 1.04166 2.70837 2.81387 2.70837 5V15C2.70837 17.1861 4.48058 18.9583 6.66671 18.9583H13.3334C15.5195 18.9583 17.2917 17.1861 17.2917 15V7.29166H14.1667C12.9011 7.29166 11.875 6.26565 11.875 5V1.04695ZM6.04171 10C6.04171 9.65482 6.32153 9.375 6.66671 9.375H13.3334C13.6786 9.375 13.9584 9.65482 13.9584 10C13.9584 10.3452 13.6786 10.625 13.3334 10.625H6.66671C6.32153 10.625 6.04171 10.3452 6.04171 10ZM6.66671 13.5417C6.32153 13.5417 6.04171 13.8215 6.04171 14.1667C6.04171 14.5118 6.32153 14.7917 6.66671 14.7917H10C10.3452 14.7917 10.625 14.5118 10.625 14.1667C10.625 13.8215 10.3452 13.5417 10 13.5417H6.66671Z" fill="white"/>
<path d="M16.9347 6.04166C16.8821 5.95882 16.824 5.87908 16.7605 5.80299L13.4799 1.86624C13.3733 1.73834 13.2542 1.62364 13.125 1.52335V5C13.125 5.57529 13.5914 6.04166 14.1667 6.04166H16.9347Z" fill="white"/>
</svg>
