<svg width="120" height="24" viewBox="0 0 120 24" fill="none" xmlns="http://www.w3.org/2000/svg">
<path d="M34.7074 11.4063V16H32.1797V1.125H36.7166C38.0128 1.28125 39.0822 1.8125 39.9896 2.65625C41.0266 3.65625 41.5451 4.84375 41.5451 6.25C41.5451 7.65625 41.0266 8.875 39.9896 9.875C38.9526 10.875 37.6887 11.375 36.1981 11.375H34.7074V11.4063ZM34.7074 3.46875V9.03125H36.1981C36.9758 9.03125 37.6239 8.75 38.2072 8.21875C38.7581 7.6875 39.0498 7.03125 39.0498 6.21875C39.0498 5.4375 38.7581 4.78125 38.2072 4.25C37.6563 3.71875 36.9758 3.4375 36.1981 3.4375H34.7074V3.46875Z" fill="#989898"/>
<path d="M44.6558 11.25C44.6558 11.8125 44.9799 12.4063 45.5632 12.9688C46.1465 13.5313 46.8594 13.8438 47.702 13.8438C48.5121 13.8438 49.2251 13.5625 49.8408 12.9688C49.938 12.875 50.1973 12.5938 50.5537 12.1563L52.9518 12.9688C52.4657 13.7188 52.0768 14.2812 51.6879 14.625C50.5861 15.6875 49.2899 16.2188 47.702 16.2188C46.1465 16.2188 44.8178 15.6875 43.7484 14.625C42.6466 13.5625 42.0957 12.3125 42.0957 10.8438C42.0957 9.375 42.6466 8.09375 43.7484 7.0625C44.8502 6.03125 46.1789 5.5 47.702 5.5C49.2575 5.5 50.5861 6.03125 51.6879 7.09375C52.6601 8.03125 53.1462 9.40625 53.1462 11.25H44.6558ZM45.2715 8.875H50.1324C49.7112 8.21875 48.901 7.875 47.702 7.875C46.6002 7.90625 45.7576 8.21875 45.2715 8.875Z" fill="#989898"/>
<path d="M55.5125 6.25V2.78125H58.0401V6.25H59.7577V8.59375H58.0401V16H55.5125V8.59375H53.7949V6.25H55.5125Z" fill="#989898"/>
<path d="M63.3868 11.5C62.6739 11.125 62.1878 10.8125 61.8637 10.5C61.2804 9.96875 60.9888 9.3125 60.9888 8.5625C60.9888 7.8125 61.2804 7.15625 61.8313 6.625C62.3822 6.09375 63.0952 5.8125 63.9053 5.8125C64.7155 5.8125 65.396 6.0625 65.9469 6.59375C66.4654 7.09375 66.7247 7.6875 66.7247 8.3125V8.875H64.3914C64.3266 8.53125 64.2294 8.3125 64.1646 8.25C64.0998 8.1875 64.0349 8.15625 63.9377 8.15625C63.8405 8.15625 63.7433 8.1875 63.6785 8.28125C63.6137 8.34375 63.5489 8.46875 63.5489 8.59375C63.5489 8.71875 63.5813 8.8125 63.6785 8.90625C63.7757 9 64.0025 9.1875 64.3914 9.40625C65.1692 9.8125 65.7849 10.1875 66.1414 10.5625C66.7895 11.1875 67.1135 11.9375 67.1135 12.7813C67.1135 13.6875 66.7895 14.4375 66.1414 15.0625C65.4932 15.6875 64.6831 16 63.7433 16C62.8035 16 61.9934 15.6875 61.3452 15.0625C60.6971 14.4375 60.373 13.5312 60.373 12.3438L62.9007 11.7188C62.9007 12.6875 62.9979 13.25 63.16 13.4375C63.322 13.5938 63.5489 13.6875 63.7757 13.6875C64.0025 13.6875 64.197 13.5938 64.3914 13.4375C64.5859 13.2812 64.6507 13.0625 64.6507 12.7813C64.6507 12.5313 64.5534 12.3438 64.359 12.1563C64.197 12 63.8729 11.7812 63.3868 11.5Z" fill="#989898"/>
<path d="M71.683 11.4063V16H69.1553V1.125H73.6921C74.9884 1.28125 76.0578 1.8125 76.9652 2.65625C78.0022 3.65625 78.5207 4.84375 78.5207 6.25C78.5207 7.65625 78.0022 8.875 76.9652 9.875C75.9282 10.875 74.6643 11.375 73.1736 11.375H71.683V11.4063ZM71.683 3.46875V9.03125H73.1736C73.9514 9.03125 74.5995 8.75 75.1828 8.21875C75.7337 7.6875 76.0254 7.03125 76.0254 6.21875C76.0254 5.4375 75.7337 4.78125 75.1828 4.25C74.6319 3.71875 73.9514 3.4375 73.1736 3.4375H71.683V3.46875Z" fill="#989898"/>
<path d="M82.3773 1.125V16H79.8496V1.125H82.3773Z" fill="#989898"/>
<path d="M95.2743 16H92.7466V15.625C91.6124 16.0313 90.6078 16.2188 89.7977 16.2188C88.2422 16.2188 86.9135 15.6875 85.8441 14.625C84.7423 13.5625 84.1914 12.3125 84.1914 10.8438C84.1914 9.375 84.7423 8.09375 85.8441 7.0625C86.9459 6.03125 88.2746 5.5 89.7977 5.5C90.6402 5.5 91.6124 5.75 92.7466 6.21875H95.2743V16ZM92.7466 11.5313V10.1875C92.6494 9.65625 92.3578 9.1875 91.9041 8.75C91.3208 8.1875 90.6078 7.875 89.7977 7.875C88.9551 7.875 88.2422 8.15625 87.6589 8.75C87.0756 9.3125 86.7515 10.0312 86.7515 10.875C86.7515 11.7188 87.0432 12.4063 87.6589 12.9688C88.2422 13.5313 88.9551 13.8438 89.7977 13.8438C90.6078 13.8438 91.3208 13.5625 91.9041 12.9688C92.3578 12.5313 92.617 12.0625 92.7466 11.5313Z" fill="#989898"/>
<path d="M105.159 12.2812L107.622 13.1562C107.006 13.9375 106.617 14.4375 106.39 14.6562C105.288 15.7187 103.992 16.25 102.404 16.25C100.849 16.25 99.52 15.7187 98.4506 14.6562C97.3487 13.5937 96.7979 12.3437 96.7979 10.875C96.7979 9.40625 97.3487 8.15625 98.4506 7.09375C99.5524 6.0625 100.881 5.53125 102.404 5.53125C103.96 5.53125 105.288 6.0625 106.39 7.125C106.617 7.34375 107.006 7.8125 107.622 8.625L105.159 9.5C104.802 9.09375 104.608 8.84375 104.543 8.78125C103.96 8.21875 103.247 7.9375 102.437 7.9375C101.594 7.9375 100.881 8.21875 100.298 8.8125C99.7144 9.375 99.3903 10.0937 99.3903 10.9062C99.3903 11.75 99.682 12.4375 100.298 13.0312C100.881 13.5937 101.594 13.9062 102.437 13.9062C103.247 13.9062 103.96 13.625 104.543 13.0312C104.608 12.9062 104.835 12.6562 105.159 12.2812Z" fill="#989898"/>
<path d="M110.992 11.25C110.992 11.8125 111.316 12.4063 111.899 12.9688C112.482 13.5313 113.195 13.8438 114.038 13.8438C114.848 13.8438 115.561 13.5625 116.177 12.9688C116.274 12.875 116.533 12.5938 116.89 12.1563L119.288 12.9688C118.802 13.7188 118.413 14.2812 118.024 14.625C116.922 15.6875 115.626 16.2188 114.038 16.2188C112.482 16.2188 111.154 15.6875 110.084 14.625C108.983 13.5625 108.432 12.3125 108.432 10.8438C108.432 9.375 108.983 8.09375 110.084 7.0625C111.186 6.03125 112.515 5.5 114.038 5.5C115.593 5.5 116.922 6.03125 118.024 7.09375C118.996 8.03125 119.482 9.40625 119.482 11.25H110.992ZM111.607 8.875H116.468C116.047 8.21875 115.237 7.875 114.038 7.875C112.936 7.90625 112.126 8.21875 111.607 8.875Z" fill="#989898"/>
<path d="M33.4433 21.2187C33.1517 21.125 32.9248 21 32.7304 20.8125C32.536 20.625 32.4712 20.4375 32.4712 20.1562C32.4712 19.9062 32.5684 19.6875 32.7628 19.5C32.9573 19.3125 33.1841 19.2188 33.4758 19.2188C33.735 19.2188 33.9943 19.3125 34.1887 19.5C34.2859 19.5938 34.3831 19.7812 34.4803 20.0312L33.897 20.25C33.8322 20.0625 33.7674 19.9687 33.735 19.9375C33.6702 19.875 33.6054 19.8437 33.5082 19.8437C33.4109 19.8437 33.3461 19.875 33.2813 19.9375C33.2165 20 33.1841 20.0625 33.1841 20.1562C33.1841 20.25 33.2165 20.3125 33.2813 20.375C33.3785 20.4687 33.4758 20.5312 33.6378 20.5937C33.9618 20.6875 34.2211 20.8437 34.4479 21.0625C34.7072 21.3125 34.8044 21.5937 34.8044 21.9375C34.8044 22.2812 34.6748 22.5625 34.4155 22.8125C34.1563 23.0625 33.8646 23.1875 33.5082 23.1875C33.1517 23.1875 32.86 23.0625 32.6008 22.8125C32.4063 22.625 32.2767 22.3437 32.2119 21.9687L32.86 21.75C32.8924 22.0625 32.9573 22.2812 33.0869 22.375C33.2165 22.5 33.3461 22.5625 33.5406 22.5625C33.7026 22.5625 33.8646 22.5 33.9943 22.375C34.1239 22.25 34.1887 22.0937 34.1887 21.9375C34.1887 21.75 34.1239 21.625 33.9943 21.5C33.7674 21.4062 33.6054 21.3125 33.4433 21.2187Z" fill="#989898"/>
<path d="M39.9893 19.8125C40.3782 20.1875 40.605 20.6563 40.605 21.2188C40.605 21.75 40.4106 22.2188 39.9893 22.625C39.6004 23 39.1143 23.2188 38.531 23.2188C37.9477 23.2188 37.4616 23.0312 37.0727 22.625C36.6839 22.25 36.457 21.7812 36.457 21.2188C36.457 20.6875 36.6515 20.2188 37.0727 19.8125C37.4616 19.4375 37.9477 19.2188 38.531 19.2188C39.1143 19.25 39.6004 19.4375 39.9893 19.8125ZM38.531 19.8437C38.1422 19.8437 37.8181 19.9688 37.5264 20.25C37.2348 20.5 37.1052 20.8438 37.1052 21.2188C37.1052 21.5938 37.2348 21.9062 37.5264 22.1875C37.8181 22.4375 38.1422 22.5938 38.531 22.5938C38.9199 22.5938 39.244 22.4687 39.5356 22.1875C39.7949 21.9375 39.9569 21.5938 39.9569 21.2188C39.9569 20.8438 39.8273 20.5313 39.5356 20.25C39.244 20 38.9199 19.8437 38.531 19.8437Z" fill="#989898"/>
<path d="M45.4989 22.125L45.985 22.5312C45.4665 22.9687 44.948 23.1875 44.4295 23.1875C43.8462 23.1875 43.3601 23 42.9712 22.625C42.5823 22.25 42.3555 21.7812 42.3555 21.2187C42.3555 20.6875 42.5499 20.2187 42.9712 19.8437C43.3601 19.4688 43.8462 19.25 44.4295 19.25C44.948 19.25 45.4665 19.4688 45.985 19.9063L45.4989 20.3125C45.1424 20 44.7859 19.8437 44.4295 19.8437C44.0406 19.8437 43.7165 19.9688 43.4573 20.25C43.198 20.5 43.036 20.8437 43.036 21.2187C43.036 21.5937 43.1656 21.9062 43.4573 22.1875C43.7165 22.4375 44.073 22.5937 44.4295 22.5937C44.7859 22.5937 45.1424 22.4375 45.4989 22.125Z" fill="#989898"/>
<path d="M48.5768 19.2812V23.125H47.9287V19.2812H48.5768Z" fill="#989898"/>
<path d="M52.7249 23.1562L52.4333 22.3437H51.5259L51.2342 23.1562H50.5537L52.012 19.2812L53.4703 23.1562H52.7249ZM52.174 21.75L51.9472 21.1562L51.7203 21.75H52.174Z" fill="#989898"/>
<path d="M55.3174 23.1562V19.2812H55.9655V22.5312H57.3266V23.125H55.3174V23.1562Z" fill="#989898"/>
<path d="M62.0576 23.1562V19.1875L63.8724 22.2187L65.6871 19.1875V23.1562H65.039V21.5312L64.0668 23.1562H63.7103L62.7382 21.5312V23.1562H62.0576Z" fill="#989898"/>
<path d="M70.0954 19.2812V19.875H68.5075V20.9062H70.0954V21.5312H68.5075V22.5625H70.0954V23.1562H67.8594V19.2812H70.0954Z" fill="#989898"/>
<path d="M73.1406 19.2812C73.7887 19.2812 74.3072 19.4688 74.6637 19.8125C75.0526 20.1875 75.247 20.6562 75.247 21.2187C75.247 21.75 75.0526 22.2187 74.6313 22.625C74.2748 22.9687 73.7563 23.1562 73.1082 23.1562H72.2656V19.2812H73.1406ZM72.9138 19.9062V22.5312H73.1406C73.5943 22.5312 73.9507 22.4062 74.1776 22.1875C74.4692 21.9375 74.5989 21.5937 74.5989 21.2187C74.5989 20.8437 74.4692 20.5312 74.1776 20.25C73.9183 20.0313 73.5619 19.9062 73.1406 19.9062H72.9138Z" fill="#989898"/>
<path d="M77.9372 19.2812V23.125H77.2891V19.2812H77.9372Z" fill="#989898"/>
<path d="M82.0853 23.1562L81.7936 22.3437H80.8863L80.5946 23.1562H79.9141L81.3723 19.2812L82.8306 23.1562H82.0853ZM81.5344 21.75L81.3075 21.1562L81.0807 21.75H81.5344Z" fill="#989898"/>
<path d="M89.7006 19.2812V19.875H88.3395V20.9062H89.7006V21.5312H88.3395V23.1562H87.6914V19.2812H89.7006Z" fill="#989898"/>
<path d="M94.9825 19.8125C95.3713 20.1875 95.5982 20.6563 95.5982 21.2188C95.5982 21.75 95.4038 22.2188 94.9825 22.625C94.5936 23 94.1075 23.2188 93.5242 23.2188C92.9409 23.2188 92.4548 23.0312 92.0659 22.625C91.677 22.25 91.4502 21.7812 91.4502 21.2188C91.4502 20.6875 91.6446 20.2188 92.0659 19.8125C92.4548 19.4375 92.9409 19.2188 93.5242 19.2188C94.1075 19.25 94.5936 19.4375 94.9825 19.8125ZM93.5242 19.8437C93.1353 19.8437 92.8113 19.9688 92.5196 20.25C92.2279 20.5 92.0983 20.8438 92.0983 21.2188C92.0983 21.5938 92.2279 21.9062 92.5196 22.1875C92.8113 22.4375 93.1353 22.5938 93.5242 22.5938C93.9131 22.5938 94.2371 22.4687 94.5288 22.1875C94.788 21.9375 94.9501 21.5938 94.9501 21.2188C94.9501 20.8438 94.8204 20.5313 94.5288 20.25C94.2371 20 93.9131 19.8437 93.5242 19.8437Z" fill="#989898"/>
<path d="M98.4826 21.875L98.2557 21.9375H98.2233V23.1562H97.5752V19.2812H98.7418C99.0659 19.3125 99.3575 19.4687 99.5844 19.6875C99.8436 19.9375 99.9732 20.25 99.9732 20.625C99.9732 21 99.8436 21.3125 99.552 21.5625C99.3575 21.75 99.2603 21.8437 99.1955 21.8437L100.07 23.1562H99.2927L98.4826 21.875ZM98.2233 19.9062V21.3437H98.6122C98.8066 21.3437 98.9687 21.2812 99.1307 21.125C99.2603 21 99.3575 20.8125 99.3575 20.625C99.3575 20.4375 99.2927 20.25 99.1307 20.125C99.0011 20 98.8066 19.9062 98.6122 19.9062H98.2233Z" fill="#989898"/>
<path d="M105.612 21.9687V23.1562H104.964V19.2812H106.131C106.455 19.3125 106.746 19.4687 106.973 19.6875C107.232 19.9375 107.362 20.25 107.362 20.625C107.362 21 107.232 21.3125 106.941 21.5625C106.681 21.8125 106.357 21.9687 105.968 21.9687H105.612ZM105.612 19.9062V21.3437H106.001C106.195 21.3437 106.357 21.2812 106.519 21.125C106.649 21 106.746 20.8125 106.746 20.625C106.746 20.4375 106.681 20.25 106.519 20.125C106.39 20 106.195 19.9062 106.001 19.9062H105.612Z" fill="#989898"/>
<path d="M111.543 19.2812V19.875H109.955V20.9062H111.543V21.5312H109.955V22.5625H111.543V23.1562H109.307V19.2812H111.543Z" fill="#989898"/>
<path d="M114.913 19.9063V23.1563H114.265V19.9063H113.357V19.3125H115.82V19.9063H114.913Z" fill="#989898"/>
<path d="M118.64 21.2187C118.348 21.125 118.121 21 117.927 20.8125C117.732 20.625 117.667 20.4375 117.667 20.1562C117.667 19.9062 117.765 19.6875 117.959 19.5C118.154 19.3125 118.38 19.2188 118.672 19.2188C118.931 19.2188 119.191 19.3125 119.385 19.5C119.482 19.5938 119.579 19.7812 119.677 20.0312L119.093 20.25C119.029 20.0625 118.964 19.9687 118.931 19.9375C118.866 19.875 118.802 19.8437 118.704 19.8437C118.607 19.8437 118.542 19.875 118.478 19.9375C118.413 20 118.38 20.0625 118.38 20.1562C118.38 20.25 118.413 20.3125 118.478 20.375C118.575 20.4687 118.672 20.5312 118.834 20.5937C119.158 20.6875 119.417 20.8437 119.644 21.0625C119.903 21.3125 120.001 21.5937 120.001 21.9375C120.001 22.2812 119.871 22.5625 119.612 22.8125C119.353 23.0625 119.061 23.1875 118.704 23.1875C118.348 23.1875 118.056 23.0625 117.797 22.8125C117.603 22.625 117.473 22.3437 117.408 21.9687L118.056 21.75C118.089 22.0625 118.154 22.2812 118.283 22.375C118.413 22.5 118.542 22.5625 118.737 22.5625C118.899 22.5625 119.061 22.5 119.191 22.375C119.32 22.25 119.385 22.0937 119.385 21.9375C119.385 21.75 119.32 21.625 119.191 21.5C118.964 21.4062 118.834 21.3125 118.64 21.2187Z" fill="#989898"/>
<path d="M24.3046 0H2.33325C1.0694 0 0 1.03125 0 2.25V21.75C0 23 1.0694 24 2.33325 24H24.3046C25.6009 24 26.6379 22.9688 26.6379 21.75V2.25C26.6379 1.03125 25.6009 0 24.3046 0ZM15.4902 7.53125C17.2077 4.84375 19.3465 4.28125 19.9298 5.75C20.5131 7.21875 19.9298 13 15.879 11.625C15.1985 11.4375 13.7726 10.25 15.4902 7.53125ZM12.1523 2.90625C13.5782 2.1875 14.842 3.96875 14.2587 7.09375C13.6754 10.1875 11.7959 10.1562 11.1477 9.90625C7.12936 8.34375 10.694 3.65625 12.1523 2.90625ZM6.2868 6.3125C7.3562 5.46875 8.68486 6.75 8.74967 9.375C8.81448 12 7.25899 12.2812 6.67568 12.1875C3.1434 11.5938 5.2174 7.15625 6.2868 6.3125ZM16.2031 20.625C14.8096 21.875 13.0273 21 12.2495 20.4062C11.8607 20.125 11.4718 19.75 10.9209 19.4375C10.7264 19.3125 10.4996 19.2188 10.2404 19.125C9.98111 19.0312 9.72186 18.9688 9.49501 18.9062C8.84689 18.7812 8.29599 18.8125 7.80989 18.7812C6.8053 18.7188 4.89333 18.25 4.6989 16.4375C4.53687 14.875 5.57386 13.75 8.10155 12.9062C9.78667 12.3438 11.0505 10.75 12.7032 10.9062C12.7356 10.9062 12.8004 10.9062 12.8653 10.9375C13.0597 10.9688 13.2217 11.0312 13.3838 11.0938C13.5458 11.1562 13.7078 11.2188 13.8698 11.3125C13.9023 11.3438 13.9671 11.375 13.9995 11.4062C15.3605 12.3438 15.1985 14.3438 16.0735 15.8438C17.4021 18.0625 17.4021 19.5938 16.2031 20.625ZM17.629 16.2188C17.1105 15.9375 16.1707 14.7188 18.0178 12.7812C19.8974 10.8438 21.7446 10.75 21.9714 12.0625C22.1658 13.375 20.6751 18 17.629 16.2188Z" fill="#989898"/>
</svg>
