<svg width="200" height="40" viewBox="0 0 200 40" fill="none" xmlns="http://www.w3.org/2000/svg">
<path d="M57.8456 19.0104V26.6667H53.6328V1.875H61.1943C63.3547 2.13542 65.137 3.02083 66.6493 4.42708C68.3776 6.09375 69.2418 8.07292 69.2418 10.4167C69.2418 12.7604 68.3776 14.7917 66.6493 16.4583C64.921 18.125 62.8146 18.9583 60.3301 18.9583H57.8456V19.0104ZM57.8456 5.78125V15.0521H60.3301C61.6263 15.0521 62.7065 14.5833 63.6787 13.6979C64.5969 12.8125 65.083 11.7188 65.083 10.3646C65.083 9.0625 64.5969 7.96875 63.6787 7.08333C62.7606 6.19792 61.6263 5.72917 60.3301 5.72917H57.8456V5.78125Z" fill="#0E2833"/>
<path d="M74.427 18.7493C74.427 19.6868 74.9671 20.6764 75.9393 21.6139C76.9115 22.5514 78.0997 23.0723 79.5039 23.0723C80.8542 23.0723 82.0424 22.6035 83.0686 21.6139C83.2307 21.4577 83.6627 20.9889 84.2569 20.2598L88.2536 21.6139C87.4435 22.8639 86.7953 23.8014 86.1472 24.3743C84.3109 26.1452 82.1505 27.0306 79.5039 27.0306C76.9114 27.0306 74.697 26.1452 72.9147 24.3743C71.0783 22.6035 70.1602 20.5202 70.1602 18.0723C70.1602 15.6243 71.0783 13.4889 72.9147 11.7702C74.751 10.0514 76.9655 9.16602 79.5039 9.16602C82.0964 9.16602 84.3109 10.0514 86.1472 11.8223C87.7675 13.3848 88.5777 15.6764 88.5777 18.7493H74.427ZM75.4532 14.791H83.5547C82.8526 13.6973 81.5023 13.1243 79.5039 13.1243C77.6676 13.1764 76.2633 13.6973 75.4532 14.791Z" fill="#0E2833"/>
<path d="M92.5208 10.417V4.63574H96.7336V10.417H99.5961V14.3232H96.7336V26.667H92.5208V14.3232H89.6582V10.417H92.5208Z" fill="#0E2833"/>
<path d="M105.645 19.1667C104.457 18.5417 103.647 18.0208 103.107 17.5C102.134 16.6146 101.648 15.5208 101.648 14.2708C101.648 13.0208 102.134 11.9271 103.053 11.0417C103.971 10.1563 105.159 9.6875 106.509 9.6875C107.859 9.6875 108.994 10.1042 109.912 10.9896C110.776 11.8229 111.208 12.8125 111.208 13.8542V14.7917H107.319C107.211 14.2187 107.049 13.8542 106.941 13.75C106.833 13.6458 106.725 13.5937 106.563 13.5937C106.401 13.5937 106.239 13.6458 106.131 13.8021C106.023 13.9062 105.915 14.1146 105.915 14.3229C105.915 14.5312 105.969 14.6875 106.131 14.8437C106.293 15 106.671 15.3125 107.319 15.6771C108.616 16.3542 109.642 16.9792 110.236 17.6042C111.316 18.6458 111.856 19.8958 111.856 21.3021C111.856 22.8125 111.316 24.0625 110.236 25.1042C109.156 26.1458 107.805 26.6667 106.239 26.6667C104.673 26.6667 103.323 26.1458 102.242 25.1042C101.162 24.0625 100.622 22.5521 100.622 20.5729L104.835 19.5312C104.835 21.1458 104.997 22.0833 105.267 22.3958C105.537 22.6562 105.915 22.8125 106.293 22.8125C106.671 22.8125 106.995 22.6562 107.319 22.3958C107.643 22.1354 107.751 21.7708 107.751 21.3021C107.751 20.8854 107.589 20.5729 107.265 20.2604C106.995 20 106.455 19.6354 105.645 19.1667Z" fill="#0E2833"/>
<path d="M119.472 19.0104V26.6667H115.259V1.875H122.82C124.981 2.13542 126.763 3.02083 128.275 4.42708C130.004 6.09375 130.868 8.07292 130.868 10.4167C130.868 12.7604 130.004 14.7917 128.275 16.4583C126.547 18.125 124.441 18.9583 121.956 18.9583H119.472V19.0104ZM119.472 5.78125V15.0521H121.956C123.252 15.0521 124.333 14.5833 125.305 13.6979C126.223 12.8125 126.709 11.7188 126.709 10.3646C126.709 9.0625 126.223 7.96875 125.305 7.08333C124.387 6.19792 123.252 5.72917 121.956 5.72917H119.472V5.78125Z" fill="#27AAE1"/>
<path d="M137.295 1.875V26.6667H133.082V1.875H137.295Z" fill="#27AAE1"/>
<path d="M158.791 26.666H154.578V26.041C152.688 26.7181 151.013 27.0306 149.663 27.0306C147.071 27.0306 144.856 26.1452 143.074 24.3743C141.238 22.6035 140.319 20.5202 140.319 18.0723C140.319 15.6243 141.238 13.4889 143.074 11.7702C144.91 10.0514 147.125 9.16602 149.663 9.16602C151.067 9.16602 152.688 9.58268 154.578 10.3639H158.791V26.666ZM154.578 19.2181V16.9785C154.416 16.0931 153.93 15.3118 153.174 14.5827C152.202 13.6452 151.013 13.1243 149.663 13.1243C148.259 13.1243 147.071 13.5931 146.098 14.5827C145.126 15.5202 144.586 16.7181 144.586 18.1243C144.586 19.5306 145.072 20.6764 146.098 21.6139C147.071 22.5514 148.259 23.0723 149.663 23.0723C151.013 23.0723 152.202 22.6035 153.174 21.6139C153.93 20.8848 154.362 20.1035 154.578 19.2181Z" fill="#27AAE1"/>
<path d="M175.264 20.4687L179.369 21.9271C178.342 23.2292 177.694 24.0625 177.316 24.4271C175.48 26.1979 173.319 27.0833 170.673 27.0833C168.08 27.0833 165.866 26.1979 164.084 24.4271C162.247 22.6562 161.329 20.5729 161.329 18.125C161.329 15.6771 162.247 13.5937 164.084 11.8229C165.92 10.1042 168.134 9.21875 170.673 9.21875C173.265 9.21875 175.48 10.1042 177.316 11.875C177.694 12.2396 178.342 13.0208 179.369 14.375L175.264 15.8333C174.67 15.1562 174.346 14.7396 174.238 14.6354C173.265 13.6979 172.077 13.2292 170.727 13.2292C169.323 13.2292 168.134 13.6979 167.162 14.6875C166.19 15.625 165.65 16.8229 165.65 18.1771C165.65 19.5833 166.136 20.7292 167.162 21.7187C168.134 22.6562 169.323 23.1771 170.727 23.1771C172.077 23.1771 173.265 22.7083 174.238 21.7187C174.346 21.5104 174.724 21.0937 175.264 20.4687Z" fill="#27AAE1"/>
<path d="M184.986 18.7493C184.986 19.6868 185.526 20.6764 186.498 21.6139C187.47 22.5514 188.658 23.0723 190.063 23.0723C191.413 23.0723 192.601 22.6035 193.627 21.6139C193.789 21.4577 194.221 20.9889 194.815 20.2598L198.812 21.6139C198.002 22.8639 197.354 23.8014 196.706 24.3743C194.869 26.1452 192.709 27.0306 190.063 27.0306C187.47 27.0306 185.256 26.1452 183.473 24.3743C181.637 22.6035 180.719 20.5202 180.719 18.0723C180.719 15.6243 181.637 13.4889 183.473 11.7702C185.31 10.0514 187.524 9.16602 190.063 9.16602C192.655 9.16602 194.869 10.0514 196.706 11.8223C198.326 13.3848 199.136 15.6764 199.136 18.7493H184.986ZM186.012 14.791H194.113C193.411 13.6973 192.061 13.1243 190.063 13.1243C188.226 13.1764 186.876 13.6973 186.012 14.791Z" fill="#27AAE1"/>
<path d="M55.7379 35.3636C55.2518 35.2074 54.8738 34.999 54.5497 34.6865C54.2256 34.374 54.1176 34.0615 54.1176 33.5928C54.1176 33.1761 54.2797 32.8115 54.6037 32.499C54.9278 32.1865 55.3059 32.0303 55.7919 32.0303C56.224 32.0303 56.6561 32.1865 56.9802 32.499C57.1422 32.6553 57.3042 32.9678 57.4663 33.3844L56.4941 33.749C56.3861 33.4365 56.278 33.2803 56.224 33.2282C56.116 33.124 56.008 33.0719 55.846 33.0719C55.6839 33.0719 55.5759 33.124 55.4679 33.2282C55.3599 33.3324 55.3059 33.4365 55.3059 33.5928C55.3059 33.749 55.3599 33.8532 55.4679 33.9574C55.6299 34.1136 55.7919 34.2178 56.062 34.3219C56.6021 34.4782 57.0342 34.7386 57.4123 35.1032C57.8443 35.5199 58.0064 35.9886 58.0064 36.5615C58.0064 37.1344 57.7903 37.6032 57.3582 38.0199C56.9262 38.4365 56.4401 38.6449 55.846 38.6449C55.2518 38.6449 54.7658 38.4365 54.3337 38.0199C54.0096 37.7074 53.7936 37.2386 53.6855 36.6136L54.7658 36.249C54.8198 36.7699 54.9278 37.1344 55.1438 37.2907C55.3599 37.499 55.5759 37.6032 55.9 37.6032C56.17 37.6032 56.4401 37.499 56.6561 37.2907C56.8722 37.0824 56.9802 36.8219 56.9802 36.5615C56.9802 36.249 56.8722 36.0407 56.6561 35.8324C56.278 35.6761 56.008 35.5199 55.7379 35.3636Z" fill="#0E2833"/>
<path d="M66.6479 33.0199C67.296 33.6449 67.6741 34.4261 67.6741 35.3636C67.6741 36.249 67.35 37.0303 66.6479 37.7074C65.9997 38.3324 65.1896 38.6969 64.2174 38.6969C63.2452 38.6969 62.4351 38.3844 61.7869 37.7074C61.1388 37.0824 60.7607 36.3011 60.7607 35.3636C60.7607 34.4782 61.0848 33.6969 61.7869 33.0199C62.4351 32.3949 63.2452 32.0303 64.2174 32.0303C65.1896 32.0824 65.9997 32.3949 66.6479 33.0199ZM64.2174 33.0719C63.5693 33.0719 63.0292 33.2803 62.5431 33.749C62.057 34.1657 61.8409 34.7386 61.8409 35.3636C61.8409 35.9886 62.057 36.5094 62.5431 36.9782C63.0292 37.3949 63.5693 37.6553 64.2174 37.6553C64.8655 37.6553 65.4056 37.4469 65.8917 36.9782C66.3238 36.5615 66.5939 35.9886 66.5939 35.3636C66.5939 34.7386 66.3778 34.2178 65.8917 33.749C65.4056 33.3324 64.8655 33.0719 64.2174 33.0719Z" fill="#0E2833"/>
<path d="M75.8298 36.8747L76.64 37.5518C75.7758 38.2809 74.9116 38.6455 74.0475 38.6455C73.0753 38.6455 72.2651 38.333 71.617 37.708C70.9689 37.083 70.5908 36.3018 70.5908 35.3643C70.5908 34.4788 70.9149 33.6976 71.617 33.0726C72.2651 32.4476 73.0753 32.083 74.0475 32.083C74.9116 32.083 75.7758 32.4476 76.64 33.1768L75.8298 33.8538C75.2357 33.333 74.6416 33.0726 74.0475 33.0726C73.3994 33.0726 72.8593 33.2809 72.4272 33.7497C71.9951 34.1663 71.725 34.7393 71.725 35.3643C71.725 35.9893 71.9411 36.5101 72.4272 36.9788C72.8593 37.3955 73.4534 37.6559 74.0475 37.6559C74.6416 37.6559 75.2357 37.3955 75.8298 36.8747Z" fill="#0E2833"/>
<path d="M80.9611 32.1348V38.541H79.8809V32.1348H80.9611Z" fill="#0E2833"/>
<path d="M87.8745 38.5931L87.3885 37.2389H85.8762L85.3901 38.5931H84.2559L86.6863 32.1348L89.1168 38.5931H87.8745ZM86.9564 36.2493L86.5783 35.2598L86.2002 36.2493H86.9564Z" fill="#0E2833"/>
<path d="M92.1953 38.5931V32.1348H93.2755V37.5514H95.544V38.541H92.1953V38.5931Z" fill="#0E2833"/>
<path d="M103.429 38.5931V31.9785L106.453 37.0306L109.478 31.9785V38.5931H108.398V35.8848L106.777 38.5931H106.183L104.563 35.8848V38.5931H103.429Z" fill="#0E2833"/>
<path d="M116.824 32.1348V33.1243H114.178V34.8431H116.824V35.8848H114.178V37.6035H116.824V38.5931H113.098V32.1348H116.824Z" fill="#0E2833"/>
<path d="M121.901 32.1348C122.981 32.1348 123.845 32.4473 124.439 33.0202C125.087 33.6452 125.411 34.4264 125.411 35.3639C125.411 36.2493 125.087 37.0306 124.385 37.7077C123.791 38.2806 122.927 38.5931 121.847 38.5931H120.442V32.1348H121.901ZM121.523 33.1764V37.5514H121.901C122.657 37.5514 123.251 37.3431 123.629 36.9785C124.115 36.5618 124.331 35.9889 124.331 35.3639C124.331 34.7389 124.115 34.2181 123.629 33.7493C123.197 33.3848 122.603 33.1764 121.901 33.1764H121.523Z" fill="#0E2833"/>
<path d="M129.894 32.1348V38.541H128.813V32.1348H129.894Z" fill="#0E2833"/>
<path d="M136.807 38.5931L136.321 37.2389H134.809L134.323 38.5931H133.188L135.619 32.1348L138.049 38.5931H136.807ZM135.889 36.2493L135.511 35.2598L135.133 36.2493H135.889Z" fill="#0E2833"/>
<path d="M149.5 32.1348V33.1243H147.232V34.8431H149.5V35.8848H147.232V38.5931H146.151V32.1348H149.5Z" fill="#0E2833"/>
<path d="M158.303 33.0199C158.951 33.6449 159.329 34.4261 159.329 35.3636C159.329 36.249 159.005 37.0303 158.303 37.7074C157.655 38.3324 156.845 38.6969 155.873 38.6969C154.9 38.6969 154.09 38.3844 153.442 37.7074C152.794 37.0824 152.416 36.3011 152.416 35.3636C152.416 34.4782 152.74 33.6969 153.442 33.0199C154.09 32.3949 154.9 32.0303 155.873 32.0303C156.845 32.0824 157.655 32.3949 158.303 33.0199ZM155.873 33.0719C155.225 33.0719 154.684 33.2803 154.198 33.749C153.712 34.1657 153.496 34.7386 153.496 35.3636C153.496 35.9886 153.712 36.5094 154.198 36.9782C154.684 37.3949 155.225 37.6553 155.873 37.6553C156.521 37.6553 157.061 37.4469 157.547 36.9782C157.979 36.5615 158.249 35.9886 158.249 35.3636C158.249 34.7386 158.033 34.2178 157.547 33.749C157.061 33.3324 156.521 33.0719 155.873 33.0719Z" fill="#0E2833"/>
<path d="M164.136 36.4577L163.758 36.5618H163.704V38.5931H162.624V32.1348H164.568C165.108 32.1868 165.595 32.4473 165.973 32.8118C166.405 33.2285 166.621 33.7493 166.621 34.3743C166.621 34.9993 166.405 35.5202 165.919 35.9368C165.595 36.2493 165.433 36.4056 165.325 36.4056L166.783 38.5931H165.487L164.136 36.4577ZM163.704 33.1764V35.5723H164.352C164.676 35.5723 164.946 35.4681 165.217 35.2077C165.433 34.9993 165.595 34.6868 165.595 34.3743C165.595 34.0618 165.487 33.7493 165.217 33.541C165 33.3327 164.676 33.1764 164.352 33.1764H163.704Z" fill="#0E2833"/>
<path d="M176.019 36.6139V38.5931H174.938V32.1348H176.883C177.423 32.1868 177.909 32.4473 178.287 32.8118C178.719 33.2285 178.935 33.7493 178.935 34.3743C178.935 34.9993 178.719 35.5202 178.233 35.9368C177.801 36.3535 177.261 36.6139 176.613 36.6139H176.019ZM176.019 33.1764V35.5723H176.667C176.991 35.5723 177.261 35.4681 177.531 35.2077C177.747 34.9993 177.909 34.6868 177.909 34.3743C177.909 34.0618 177.801 33.7493 177.531 33.541C177.315 33.3327 176.991 33.1764 176.667 33.1764H176.019Z" fill="#0E2833"/>
<path d="M185.903 32.1348V33.1243H183.256V34.8431H185.903V35.8848H183.256V37.6035H185.903V38.5931H182.176V32.1348H185.903Z" fill="#0E2833"/>
<path d="M191.52 33.1761V38.5928H190.44V33.1761H188.928V32.1865H193.033V33.1761H191.52Z" fill="#0E2833"/>
<path d="M197.731 35.3636C197.245 35.2074 196.867 34.999 196.543 34.6865C196.219 34.374 196.111 34.0615 196.111 33.5928C196.111 33.1761 196.273 32.8115 196.597 32.499C196.921 32.1865 197.299 32.0303 197.785 32.0303C198.217 32.0303 198.649 32.1865 198.973 32.499C199.135 32.6553 199.297 32.9678 199.459 33.3844L198.487 33.749C198.379 33.4365 198.271 33.2803 198.217 33.2282C198.109 33.124 198.001 33.0719 197.839 33.0719C197.677 33.0719 197.569 33.124 197.461 33.2282C197.353 33.3324 197.299 33.4365 197.299 33.5928C197.299 33.749 197.353 33.8532 197.461 33.9574C197.623 34.1136 197.785 34.2178 198.055 34.3219C198.595 34.4782 199.027 34.7386 199.405 35.1032C199.837 35.5199 200 35.9886 200 36.5615C200 37.1344 199.783 37.6032 199.351 38.0199C198.919 38.4365 198.433 38.6449 197.839 38.6449C197.245 38.6449 196.759 38.4365 196.327 38.0199C196.003 37.7074 195.787 37.2386 195.679 36.6136L196.759 36.249C196.813 36.7699 196.921 37.1344 197.137 37.2907C197.353 37.499 197.569 37.6032 197.893 37.6032C198.163 37.6032 198.433 37.499 198.649 37.2907C198.865 37.0824 198.973 36.8219 198.973 36.5615C198.973 36.249 198.865 36.0407 198.649 35.8324C198.271 35.6761 198.055 35.5199 197.731 35.3636Z" fill="#0E2833"/>
<path d="M40.5077 0H3.88874C1.78234 0 0 1.71875 0 3.75V36.25C0 38.3333 1.78234 40 3.88874 40H40.5077C42.6682 40 44.3965 38.2812 44.3965 36.25V3.75C44.3965 1.71875 42.6682 0 40.5077 0ZM25.8169 12.5521C28.6795 8.07292 32.2442 7.13542 33.2163 9.58333C34.1885 12.0312 33.2163 21.6667 26.4651 19.375C25.3308 19.0625 22.9544 17.0833 25.8169 12.5521ZM20.2539 4.84375C22.6303 3.64583 24.7367 6.61458 23.7645 11.8229C22.7924 16.9792 19.6598 16.9271 18.5796 16.5104C11.8823 13.9062 17.8234 6.09375 20.2539 4.84375ZM10.478 10.5208C12.2603 9.11458 14.4748 11.25 14.5828 15.625C14.6908 20 12.0983 20.4688 11.1261 20.3125C5.239 19.3229 8.69566 11.9271 10.478 10.5208ZM27.0052 34.375C24.6827 36.4583 21.7121 35 20.4159 34.0104C19.7678 33.5417 19.1197 32.9167 18.2015 32.3958C17.8774 32.1875 17.4993 32.0312 17.0673 31.875C16.6352 31.7188 16.2031 31.6146 15.825 31.5104C14.7448 31.3021 13.8266 31.3542 13.0165 31.3021C11.3422 31.1979 8.15556 30.4167 7.8315 27.3958C7.56144 24.7917 9.28977 22.9167 13.5026 21.5104C16.3111 20.5729 18.4175 17.9167 21.172 18.1771C21.2261 18.1771 21.3341 18.1771 21.4421 18.2292C21.7662 18.2812 22.0362 18.3854 22.3063 18.4896C22.5763 18.5938 22.8464 18.6979 23.1164 18.8542C23.1704 18.9062 23.2784 18.9583 23.3325 19.0104C25.6009 20.5729 25.3308 23.9062 26.7891 26.4062C29.0035 30.1042 29.0035 32.6562 27.0052 34.375ZM29.3816 27.0312C28.5175 26.5625 26.9511 24.5312 30.0297 21.3021C33.1623 18.0729 36.2409 17.9167 36.619 20.1042C36.9431 22.2917 34.4586 30 29.3816 27.0312Z" fill="#27AAE1"/>
</svg>
